<svg width="678" height="142" viewBox="0 0 678 142" fill="none" xmlns="http://www.w3.org/2000/svg">
<path d="M0 40.5H678" stroke="#E2E7E7" stroke-dasharray="3 6"/>
<path d="M0 0.5H678" stroke="#E2E7E7" stroke-dasharray="3 6"/>
<path d="M0 80.5H678" stroke="#E2E7E7" stroke-dasharray="3 6"/>
<path d="M0 120.5H678" stroke="#E2E7E7"/>
<path opacity="0.5" d="M14.7167 135.441C14.7167 134.18 14.922 133.197 15.3327 132.493C15.7433 131.782 16.462 131.426 17.4887 131.426C18.508 131.426 19.223 131.782 19.6337 132.493C20.0443 133.197 20.2497 134.18 20.2497 135.441C20.2497 136.724 20.0443 137.722 19.6337 138.433C19.223 139.144 18.508 139.5 17.4887 139.5C16.462 139.5 15.7433 139.144 15.3327 138.433C14.922 137.722 14.7167 136.724 14.7167 135.441ZM19.2597 135.441C19.2597 134.803 19.2157 134.264 19.1277 133.824C19.047 133.377 18.8747 133.017 18.6107 132.746C18.354 132.475 17.98 132.339 17.4887 132.339C16.99 132.339 16.6087 132.475 16.3447 132.746C16.088 133.017 15.9157 133.377 15.8277 133.824C15.747 134.264 15.7067 134.803 15.7067 135.441C15.7067 136.101 15.747 136.655 15.8277 137.102C15.9157 137.549 16.088 137.909 16.3447 138.18C16.6087 138.451 16.99 138.587 17.4887 138.587C17.98 138.587 18.354 138.451 18.6107 138.18C18.8747 137.909 19.047 137.549 19.1277 137.102C19.2157 136.655 19.2597 136.101 19.2597 135.441ZM21.8599 132.46V131.547H23.9279V139.5H22.9159V132.46H21.8599Z" fill="#737B8B"/>
<path d="M8 30.5H16V120.5H8V30.5Z" fill="#5A6ACF"/>
<path d="M22 70.5H30V120.5H22V70.5Z" fill="#E6E8EC"/>
<path opacity="0.5" d="M360.976 135.441C360.976 134.18 361.181 133.197 361.592 132.493C362.003 131.782 362.721 131.426 363.748 131.426C364.767 131.426 365.482 131.782 365.893 132.493C366.304 133.197 366.509 134.18 366.509 135.441C366.509 136.724 366.304 137.722 365.893 138.433C365.482 139.144 364.767 139.5 363.748 139.5C362.721 139.5 362.003 139.144 361.592 138.433C361.181 137.722 360.976 136.724 360.976 135.441ZM365.519 135.441C365.519 134.803 365.475 134.264 365.387 133.824C365.306 133.377 365.134 133.017 364.87 132.746C364.613 132.475 364.239 132.339 363.748 132.339C363.249 132.339 362.868 132.475 362.604 132.746C362.347 133.017 362.175 133.377 362.087 133.824C362.006 134.264 361.966 134.803 361.966 135.441C361.966 136.101 362.006 136.655 362.087 137.102C362.175 137.549 362.347 137.909 362.604 138.18C362.868 138.451 363.249 138.587 363.748 138.587C364.239 138.587 364.613 138.451 364.87 138.18C365.134 137.909 365.306 137.549 365.387 137.102C365.475 136.655 365.519 136.101 365.519 135.441ZM373.278 132.328L370.22 139.5H369.208L372.31 132.427H368.064V131.569H373.278V132.328Z" fill="#737B8B"/>
<path d="M356 30.5H364V120.5H356V30.5Z" fill="#5A6ACF"/>
<path d="M370 70.5H378V120.5H370V70.5Z" fill="#E6E8EC"/>
<path opacity="0.5" d="M70.8148 135.441C70.8148 134.18 71.0201 133.197 71.4308 132.493C71.8415 131.782 72.5601 131.426 73.5868 131.426C74.6061 131.426 75.3211 131.782 75.7318 132.493C76.1425 133.197 76.3478 134.18 76.3478 135.441C76.3478 136.724 76.1425 137.722 75.7318 138.433C75.3211 139.144 74.6061 139.5 73.5868 139.5C72.5601 139.5 71.8415 139.144 71.4308 138.433C71.0201 137.722 70.8148 136.724 70.8148 135.441ZM75.3578 135.441C75.3578 134.803 75.3138 134.264 75.2258 133.824C75.1451 133.377 74.9728 133.017 74.7088 132.746C74.4521 132.475 74.0781 132.339 73.5868 132.339C73.0881 132.339 72.7068 132.475 72.4428 132.746C72.1861 133.017 72.0138 133.377 71.9258 133.824C71.8451 134.264 71.8048 134.803 71.8048 135.441C71.8048 136.101 71.8451 136.655 71.9258 137.102C72.0138 137.549 72.1861 137.909 72.4428 138.18C72.7068 138.451 73.0881 138.587 73.5868 138.587C74.0781 138.587 74.4521 138.451 74.7088 138.18C74.9728 137.909 75.1451 137.549 75.2258 137.102C75.3138 136.655 75.3578 136.101 75.3578 135.441ZM78.101 138.697C79.0324 137.949 79.762 137.337 80.29 136.86C80.818 136.376 81.2617 135.874 81.621 135.353C81.9877 134.825 82.171 134.308 82.171 133.802C82.171 133.325 82.0537 132.951 81.819 132.68C81.5917 132.401 81.2214 132.262 80.708 132.262C80.2094 132.262 79.8207 132.42 79.542 132.735C79.2707 133.043 79.124 133.457 79.102 133.978H78.134C78.1634 133.157 78.4127 132.522 78.882 132.075C79.3514 131.628 79.9564 131.404 80.697 131.404C81.4524 131.404 82.05 131.613 82.49 132.031C82.9374 132.449 83.161 133.025 83.161 133.758C83.161 134.367 82.9777 134.961 82.611 135.54C82.2517 136.112 81.841 136.618 81.379 137.058C80.917 137.491 80.3267 137.997 79.608 138.576H83.392V139.412H78.101V138.697Z" fill="#737B8B"/>
<path d="M66 50.5H74V120.5H66V50.5Z" fill="#5A6ACF"/>
<path d="M80 30.5H88V120.5H80V30.5Z" fill="#E6E8EC"/>
<path opacity="0.5" d="M419.009 135.441C419.009 134.18 419.214 133.197 419.625 132.493C420.035 131.782 420.754 131.426 421.781 131.426C422.8 131.426 423.515 131.782 423.926 132.493C424.336 133.197 424.542 134.18 424.542 135.441C424.542 136.724 424.336 137.722 423.926 138.433C423.515 139.144 422.8 139.5 421.781 139.5C420.754 139.5 420.035 139.144 419.625 138.433C419.214 137.722 419.009 136.724 419.009 135.441ZM423.552 135.441C423.552 134.803 423.508 134.264 423.42 133.824C423.339 133.377 423.167 133.017 422.903 132.746C422.646 132.475 422.272 132.339 421.781 132.339C421.282 132.339 420.901 132.475 420.637 132.746C420.38 133.017 420.208 133.377 420.12 133.824C420.039 134.264 419.999 134.803 419.999 135.441C419.999 136.101 420.039 136.655 420.12 137.102C420.208 137.549 420.38 137.909 420.637 138.18C420.901 138.451 421.282 138.587 421.781 138.587C422.272 138.587 422.646 138.451 422.903 138.18C423.167 137.909 423.339 137.549 423.42 137.102C423.508 136.655 423.552 136.101 423.552 135.441ZM427.868 135.364C427.457 135.203 427.142 134.968 426.922 134.66C426.702 134.352 426.592 133.978 426.592 133.538C426.592 133.142 426.691 132.786 426.889 132.471C427.087 132.148 427.38 131.895 427.769 131.712C428.165 131.521 428.642 131.426 429.199 131.426C429.756 131.426 430.229 131.521 430.618 131.712C431.014 131.895 431.311 132.148 431.509 132.471C431.714 132.786 431.817 133.142 431.817 133.538C431.817 133.963 431.703 134.337 431.476 134.66C431.249 134.975 430.937 135.21 430.541 135.364C430.996 135.503 431.355 135.749 431.619 136.101C431.89 136.446 432.026 136.864 432.026 137.355C432.026 137.832 431.909 138.25 431.674 138.609C431.439 138.961 431.106 139.236 430.673 139.434C430.248 139.625 429.756 139.72 429.199 139.72C428.642 139.72 428.15 139.625 427.725 139.434C427.307 139.236 426.981 138.961 426.746 138.609C426.511 138.25 426.394 137.832 426.394 137.355C426.394 136.864 426.526 136.442 426.79 136.09C427.054 135.738 427.413 135.496 427.868 135.364ZM430.849 133.659C430.849 133.212 430.702 132.867 430.409 132.625C430.116 132.383 429.712 132.262 429.199 132.262C428.693 132.262 428.293 132.383 428 132.625C427.707 132.867 427.56 133.215 427.56 133.67C427.56 134.081 427.71 134.411 428.011 134.66C428.319 134.909 428.715 135.034 429.199 135.034C429.69 135.034 430.086 134.909 430.387 134.66C430.695 134.403 430.849 134.07 430.849 133.659ZM429.199 135.804C428.656 135.804 428.213 135.932 427.868 136.189C427.523 136.438 427.351 136.816 427.351 137.322C427.351 137.791 427.516 138.169 427.846 138.455C428.183 138.741 428.634 138.884 429.199 138.884C429.764 138.884 430.211 138.741 430.541 138.455C430.871 138.169 431.036 137.791 431.036 137.322C431.036 136.831 430.867 136.457 430.53 136.2C430.193 135.936 429.749 135.804 429.199 135.804Z" fill="#737B8B"/>
<path d="M414 50.5H422V120.5H414V50.5Z" fill="#5A6ACF"/>
<path d="M428 30.5H436V120.5H428V30.5Z" fill="#E6E8EC"/>
<path opacity="0.5" d="M128.74 135.441C128.74 134.18 128.945 133.197 129.356 132.493C129.766 131.782 130.485 131.426 131.512 131.426C132.531 131.426 133.246 131.782 133.657 132.493C134.067 133.197 134.273 134.18 134.273 135.441C134.273 136.724 134.067 137.722 133.657 138.433C133.246 139.144 132.531 139.5 131.512 139.5C130.485 139.5 129.766 139.144 129.356 138.433C128.945 137.722 128.74 136.724 128.74 135.441ZM133.283 135.441C133.283 134.803 133.239 134.264 133.151 133.824C133.07 133.377 132.898 133.017 132.634 132.746C132.377 132.475 132.003 132.339 131.512 132.339C131.013 132.339 130.632 132.475 130.368 132.746C130.111 133.017 129.939 133.377 129.851 133.824C129.77 134.264 129.73 134.803 129.73 135.441C129.73 136.101 129.77 136.655 129.851 137.102C129.939 137.549 130.111 137.909 130.368 138.18C130.632 138.451 131.013 138.587 131.512 138.587C132.003 138.587 132.377 138.451 132.634 138.18C132.898 137.909 133.07 137.549 133.151 137.102C133.239 136.655 133.283 136.101 133.283 135.441ZM136.125 133.549C136.176 132.874 136.437 132.346 136.906 131.965C137.375 131.584 137.984 131.393 138.732 131.393C139.231 131.393 139.66 131.485 140.019 131.668C140.386 131.844 140.661 132.086 140.844 132.394C141.035 132.702 141.13 133.05 141.13 133.439C141.13 133.894 140.998 134.286 140.734 134.616C140.477 134.946 140.14 135.159 139.722 135.254V135.309C140.199 135.426 140.576 135.657 140.855 136.002C141.134 136.347 141.273 136.798 141.273 137.355C141.273 137.773 141.178 138.151 140.987 138.488C140.796 138.818 140.51 139.078 140.129 139.269C139.748 139.46 139.289 139.555 138.754 139.555C137.977 139.555 137.339 139.353 136.84 138.95C136.341 138.539 136.063 137.96 136.004 137.212H136.972C137.023 137.652 137.203 138.011 137.511 138.29C137.819 138.569 138.23 138.708 138.743 138.708C139.256 138.708 139.645 138.576 139.909 138.312C140.18 138.041 140.316 137.692 140.316 137.267C140.316 136.717 140.133 136.321 139.766 136.079C139.399 135.837 138.846 135.716 138.105 135.716H137.852V134.88H138.116C138.791 134.873 139.3 134.763 139.645 134.55C139.99 134.33 140.162 133.993 140.162 133.538C140.162 133.149 140.034 132.838 139.777 132.603C139.528 132.368 139.168 132.251 138.699 132.251C138.244 132.251 137.878 132.368 137.599 132.603C137.32 132.838 137.155 133.153 137.104 133.549H136.125Z" fill="#737B8B"/>
<path d="M124 40.5H132V120.5H124V40.5Z" fill="#5A6ACF"/>
<path d="M138 80.5H146V120.5H138V80.5Z" fill="#E6E8EC"/>
<path opacity="0.5" d="M477.014 135.441C477.014 134.18 477.219 133.197 477.63 132.493C478.041 131.782 478.759 131.426 479.786 131.426C480.805 131.426 481.52 131.782 481.931 132.493C482.342 133.197 482.547 134.18 482.547 135.441C482.547 136.724 482.342 137.722 481.931 138.433C481.52 139.144 480.805 139.5 479.786 139.5C478.759 139.5 478.041 139.144 477.63 138.433C477.219 137.722 477.014 136.724 477.014 135.441ZM481.557 135.441C481.557 134.803 481.513 134.264 481.425 133.824C481.344 133.377 481.172 133.017 480.908 132.746C480.651 132.475 480.277 132.339 479.786 132.339C479.287 132.339 478.906 132.475 478.642 132.746C478.385 133.017 478.213 133.377 478.125 133.824C478.044 134.264 478.004 134.803 478.004 135.441C478.004 136.101 478.044 136.655 478.125 137.102C478.213 137.549 478.385 137.909 478.642 138.18C478.906 138.451 479.287 138.587 479.786 138.587C480.277 138.587 480.651 138.451 480.908 138.18C481.172 137.909 481.344 137.549 481.425 137.102C481.513 136.655 481.557 136.101 481.557 135.441ZM485.708 137.366C485.782 137.784 485.95 138.107 486.214 138.334C486.486 138.561 486.849 138.675 487.303 138.675C487.912 138.675 488.359 138.437 488.645 137.96C488.939 137.483 489.078 136.68 489.063 135.551C488.909 135.881 488.653 136.141 488.293 136.332C487.934 136.515 487.534 136.607 487.094 136.607C486.603 136.607 486.163 136.508 485.774 136.31C485.393 136.105 485.092 135.808 484.872 135.419C484.652 135.03 484.542 134.561 484.542 134.011C484.542 133.226 484.77 132.596 485.224 132.119C485.679 131.635 486.324 131.393 487.16 131.393C488.187 131.393 488.906 131.727 489.316 132.394C489.734 133.061 489.943 134.055 489.943 135.375C489.943 136.299 489.859 137.062 489.69 137.663C489.529 138.264 489.25 138.723 488.854 139.038C488.466 139.353 487.93 139.511 487.248 139.511C486.5 139.511 485.917 139.309 485.499 138.906C485.081 138.503 484.843 137.989 484.784 137.366H485.708ZM487.259 135.76C487.751 135.76 488.154 135.61 488.469 135.309C488.785 135.001 488.942 134.587 488.942 134.066C488.942 133.516 488.788 133.072 488.48 132.735C488.172 132.398 487.74 132.229 487.182 132.229C486.669 132.229 486.258 132.39 485.95 132.713C485.65 133.036 485.499 133.461 485.499 133.989C485.499 134.524 485.65 134.953 485.95 135.276C486.251 135.599 486.687 135.76 487.259 135.76Z" fill="#737B8B"/>
<path d="M472 40.5H480V120.5H472V40.5Z" fill="#5A6ACF"/>
<path d="M486 80.5H494V120.5H486V80.5Z" fill="#E6E8EC"/>
<path opacity="0.5" d="M187.019 135.441C187.019 134.18 187.225 133.197 187.635 132.493C188.046 131.782 188.765 131.426 189.791 131.426C190.811 131.426 191.526 131.782 191.936 132.493C192.347 133.197 192.552 134.18 192.552 135.441C192.552 136.724 192.347 137.722 191.936 138.433C191.526 139.144 190.811 139.5 189.791 139.5C188.765 139.5 188.046 139.144 187.635 138.433C187.225 137.722 187.019 136.724 187.019 135.441ZM191.562 135.441C191.562 134.803 191.518 134.264 191.43 133.824C191.35 133.377 191.177 133.017 190.913 132.746C190.657 132.475 190.283 132.339 189.791 132.339C189.293 132.339 188.911 132.475 188.647 132.746C188.391 133.017 188.218 133.377 188.13 133.824C188.05 134.264 188.009 134.803 188.009 135.441C188.009 136.101 188.05 136.655 188.13 137.102C188.218 137.549 188.391 137.909 188.647 138.18C188.911 138.451 189.293 138.587 189.791 138.587C190.283 138.587 190.657 138.451 190.913 138.18C191.177 137.909 191.35 137.549 191.43 137.102C191.518 136.655 191.562 136.101 191.562 135.441ZM194.185 137.729V136.97L198.046 131.624H199.245V136.86H200.345V137.729H199.245V139.5H198.255V137.729H194.185ZM198.299 132.669L195.34 136.86H198.299V132.669Z" fill="#737B8B"/>
<path d="M182 60.5H190V120.5H182V60.5Z" fill="#5A6ACF"/>
<path d="M196 40.5H204V120.5H196V40.5Z" fill="#E6E8EC"/>
<path opacity="0.5" d="M536.453 132.46V131.547H538.521V139.5H537.509V132.46H536.453ZM540.74 135.441C540.74 134.18 540.945 133.197 541.356 132.493C541.767 131.782 542.485 131.426 543.512 131.426C544.531 131.426 545.246 131.782 545.657 132.493C546.068 133.197 546.273 134.18 546.273 135.441C546.273 136.724 546.068 137.722 545.657 138.433C545.246 139.144 544.531 139.5 543.512 139.5C542.485 139.5 541.767 139.144 541.356 138.433C540.945 137.722 540.74 136.724 540.74 135.441ZM545.283 135.441C545.283 134.803 545.239 134.264 545.151 133.824C545.07 133.377 544.898 133.017 544.634 132.746C544.377 132.475 544.003 132.339 543.512 132.339C543.013 132.339 542.632 132.475 542.368 132.746C542.111 133.017 541.939 133.377 541.851 133.824C541.77 134.264 541.73 134.803 541.73 135.441C541.73 136.101 541.77 136.655 541.851 137.102C541.939 137.549 542.111 137.909 542.368 138.18C542.632 138.451 543.013 138.587 543.512 138.587C544.003 138.587 544.377 138.451 544.634 138.18C544.898 137.909 545.07 137.549 545.151 137.102C545.239 136.655 545.283 136.101 545.283 135.441Z" fill="#737B8B"/>
<path d="M530 60.5H538V120.5H530V60.5Z" fill="#5A6ACF"/>
<path d="M544 40.5H552V120.5H544V40.5Z" fill="#E6E8EC"/>
<path opacity="0.5" d="M245.025 135.441C245.025 134.18 245.23 133.197 245.641 132.493C246.051 131.782 246.77 131.426 247.797 131.426C248.816 131.426 249.531 131.782 249.942 132.493C250.352 133.197 250.558 134.18 250.558 135.441C250.558 136.724 250.352 137.722 249.942 138.433C249.531 139.144 248.816 139.5 247.797 139.5C246.77 139.5 246.051 139.144 245.641 138.433C245.23 137.722 245.025 136.724 245.025 135.441ZM249.568 135.441C249.568 134.803 249.524 134.264 249.436 133.824C249.355 133.377 249.183 133.017 248.919 132.746C248.662 132.475 248.288 132.339 247.797 132.339C247.298 132.339 246.917 132.475 246.653 132.746C246.396 133.017 246.224 133.377 246.136 133.824C246.055 134.264 246.015 134.803 246.015 135.441C246.015 136.101 246.055 136.655 246.136 137.102C246.224 137.549 246.396 137.909 246.653 138.18C246.917 138.451 247.298 138.587 247.797 138.587C248.288 138.587 248.662 138.451 248.919 138.18C249.183 137.909 249.355 137.549 249.436 137.102C249.524 136.655 249.568 136.101 249.568 135.441ZM257.503 132.416H253.642V134.924C253.811 134.689 254.06 134.499 254.39 134.352C254.72 134.198 255.076 134.121 255.457 134.121C256.066 134.121 256.561 134.249 256.942 134.506C257.323 134.755 257.595 135.082 257.756 135.485C257.925 135.881 258.009 136.303 258.009 136.75C258.009 137.278 257.91 137.751 257.712 138.169C257.514 138.587 257.21 138.917 256.799 139.159C256.396 139.401 255.893 139.522 255.292 139.522C254.522 139.522 253.899 139.324 253.422 138.928C252.945 138.532 252.656 138.004 252.553 137.344H253.532C253.627 137.762 253.829 138.088 254.137 138.323C254.445 138.558 254.834 138.675 255.303 138.675C255.882 138.675 256.319 138.503 256.612 138.158C256.905 137.806 257.052 137.344 257.052 136.772C257.052 136.2 256.905 135.76 256.612 135.452C256.319 135.137 255.886 134.979 255.314 134.979C254.925 134.979 254.584 135.074 254.291 135.265C254.005 135.448 253.796 135.701 253.664 136.024H252.718V131.536H257.503V132.416Z" fill="#737B8B"/>
<path d="M240 20.5H248V120.5H240V20.5Z" fill="#5A6ACF"/>
<path d="M254 50.5H262V120.5H254V50.5Z" fill="#E6E8EC"/>
<path opacity="0.5" d="M595.645 132.46V131.547H597.713V139.5H596.701V132.46H595.645ZM599.668 132.46V131.547H601.736V139.5H600.724V132.46H599.668Z" fill="#737B8B"/>
<path d="M588 20.5H596V120.5H588V20.5Z" fill="#5A6ACF"/>
<path d="M602 50.5H610V120.5H602V50.5Z" fill="#E6E8EC"/>
<path opacity="0.5" d="M302.987 135.441C302.987 134.18 303.193 133.197 303.603 132.493C304.014 131.782 304.733 131.426 305.759 131.426C306.779 131.426 307.494 131.782 307.904 132.493C308.315 133.197 308.52 134.18 308.52 135.441C308.52 136.724 308.315 137.722 307.904 138.433C307.494 139.144 306.779 139.5 305.759 139.5C304.733 139.5 304.014 139.144 303.603 138.433C303.193 137.722 302.987 136.724 302.987 135.441ZM307.53 135.441C307.53 134.803 307.486 134.264 307.398 133.824C307.318 133.377 307.145 133.017 306.881 132.746C306.625 132.475 306.251 132.339 305.759 132.339C305.261 132.339 304.879 132.475 304.615 132.746C304.359 133.017 304.186 133.377 304.098 133.824C304.018 134.264 303.977 134.803 303.977 135.441C303.977 136.101 304.018 136.655 304.098 137.102C304.186 137.549 304.359 137.909 304.615 138.18C304.879 138.451 305.261 138.587 305.759 138.587C306.251 138.587 306.625 138.451 306.881 138.18C307.145 137.909 307.318 137.549 307.398 137.102C307.486 136.655 307.53 136.101 307.53 135.441ZM314.827 133.439C314.666 132.625 314.164 132.218 313.32 132.218C312.668 132.218 312.18 132.471 311.857 132.977C311.535 133.476 311.377 134.301 311.384 135.452C311.553 135.071 311.832 134.774 312.22 134.561C312.616 134.341 313.056 134.231 313.54 134.231C314.296 134.231 314.897 134.466 315.344 134.935C315.799 135.404 316.026 136.053 316.026 136.882C316.026 137.381 315.927 137.828 315.729 138.224C315.539 138.62 315.245 138.935 314.849 139.17C314.461 139.405 313.988 139.522 313.43 139.522C312.675 139.522 312.085 139.353 311.659 139.016C311.234 138.679 310.937 138.213 310.768 137.619C310.6 137.025 310.515 136.292 310.515 135.419C310.515 132.728 311.454 131.382 313.331 131.382C314.05 131.382 314.615 131.576 315.025 131.965C315.436 132.354 315.678 132.845 315.751 133.439H314.827ZM313.331 135.078C313.016 135.078 312.719 135.144 312.44 135.276C312.162 135.401 311.934 135.595 311.758 135.859C311.59 136.116 311.505 136.431 311.505 136.805C311.505 137.362 311.667 137.817 311.989 138.169C312.312 138.514 312.774 138.686 313.375 138.686C313.889 138.686 314.296 138.528 314.596 138.213C314.904 137.89 315.058 137.458 315.058 136.915C315.058 136.343 314.912 135.896 314.618 135.573C314.325 135.243 313.896 135.078 313.331 135.078Z" fill="#737B8B"/>
<path d="M298 10.5H306V120.5H298V10.5Z" fill="#5A6ACF"/>
<path d="M312 70.5H320V120.5H312V70.5Z" fill="#E6E8EC"/>
<path opacity="0.5" d="M652.743 132.46V131.547H654.811V139.5H653.799V132.46H652.743ZM656.909 138.697C657.84 137.949 658.57 137.337 659.098 136.86C659.626 136.376 660.07 135.874 660.429 135.353C660.796 134.825 660.979 134.308 660.979 133.802C660.979 133.325 660.862 132.951 660.627 132.68C660.4 132.401 660.029 132.262 659.516 132.262C659.017 132.262 658.629 132.42 658.35 132.735C658.079 133.043 657.932 133.457 657.91 133.978H656.942C656.971 133.157 657.221 132.522 657.69 132.075C658.159 131.628 658.764 131.404 659.505 131.404C660.26 131.404 660.858 131.613 661.298 132.031C661.745 132.449 661.969 133.025 661.969 133.758C661.969 134.367 661.786 134.961 661.419 135.54C661.06 136.112 660.649 136.618 660.187 137.058C659.725 137.491 659.135 137.997 658.416 138.576H662.2V139.412H656.909V138.697Z" fill="#737B8B"/>
<path d="M646 10.5H654V120.5H646V10.5Z" fill="#5A6ACF"/>
<path d="M660 70.5H668V120.5H660V70.5Z" fill="#E6E8EC"/>
</svg>
