<svg width="127" height="132" viewBox="0 0 127 132" fill="none" xmlns="http://www.w3.org/2000/svg">
<circle opacity="0.9" cx="61.1765" cy="65.9412" r="61.1765" fill="#2FBFDE"/>
<path d="M41.2956 59.1087C41.4556 60.0207 41.8236 60.7247 42.3996 61.2207C42.9916 61.7167 43.7836 61.9647 44.7756 61.9647C46.1036 61.9647 47.0796 61.4447 47.7036 60.4047C48.3436 59.3647 48.6476 57.6127 48.6156 55.1487C48.2796 55.8687 47.7196 56.4367 46.9356 56.8527C46.1516 57.2527 45.2796 57.4527 44.3196 57.4527C43.2476 57.4527 42.2876 57.2367 41.4396 56.8047C40.6076 56.3567 39.9516 55.7087 39.4716 54.8607C38.9916 54.0127 38.7516 52.9887 38.7516 51.7887C38.7516 50.0767 39.2476 48.7007 40.2396 47.6607C41.2316 46.6047 42.6396 46.0767 44.4636 46.0767C46.7036 46.0767 48.2716 46.8047 49.1676 48.2607C50.0796 49.7167 50.5356 51.8847 50.5356 54.7647C50.5356 56.7807 50.3516 58.4447 49.9836 59.7567C49.6316 61.0687 49.0236 62.0687 48.1596 62.7567C47.3116 63.4447 46.1436 63.7887 44.6556 63.7887C43.0236 63.7887 41.7516 63.3487 40.8396 62.4687C39.9276 61.5887 39.4076 60.4687 39.2796 59.1087H41.2956ZM44.6796 55.6047C45.7516 55.6047 46.6316 55.2767 47.3196 54.6207C48.0076 53.9487 48.3516 53.0447 48.3516 51.9087C48.3516 50.7087 48.0156 49.7407 47.3436 49.0047C46.6716 48.2687 45.7276 47.9007 44.5116 47.9007C43.3916 47.9007 42.4956 48.2527 41.8236 48.9567C41.1676 49.6607 40.8396 50.5887 40.8396 51.7407C40.8396 52.9087 41.1676 53.8447 41.8236 54.5487C42.4796 55.2527 43.4316 55.6047 44.6796 55.6047ZM53.7231 62.0127C55.7551 60.3807 57.3471 59.0447 58.4991 58.0047C59.6511 56.9487 60.6191 55.8527 61.4031 54.7167C62.2031 53.5647 62.6031 52.4367 62.6031 51.3327C62.6031 50.2927 62.3471 49.4767 61.8351 48.8847C61.3391 48.2767 60.5311 47.9727 59.4111 47.9727C58.3231 47.9727 57.4751 48.3167 56.8671 49.0047C56.2751 49.6767 55.9551 50.5807 55.9071 51.7167H53.7951C53.8591 49.9247 54.4031 48.5407 55.4271 47.5647C56.4511 46.5887 57.7711 46.1007 59.3871 46.1007C61.0351 46.1007 62.3391 46.5567 63.2991 47.4687C64.2751 48.3807 64.7631 49.6367 64.7631 51.2367C64.7631 52.5647 64.3631 53.8607 63.5631 55.1247C62.7791 56.3727 61.8831 57.4767 60.8751 58.4367C59.8671 59.3807 58.5791 60.4847 57.0111 61.7487H65.2671V63.5727H53.7231V62.0127ZM67.6942 50.3247C67.6942 49.2367 68.0222 48.3727 68.6782 47.7327C69.3342 47.0767 70.1742 46.7487 71.1982 46.7487C72.2222 46.7487 73.0622 47.0767 73.7182 47.7327C74.3742 48.3727 74.7022 49.2367 74.7022 50.3247C74.7022 51.4287 74.3742 52.3087 73.7182 52.9647C73.0622 53.6047 72.2222 53.9247 71.1982 53.9247C70.1742 53.9247 69.3342 53.6047 68.6782 52.9647C68.0222 52.3087 67.6942 51.4287 67.6942 50.3247ZM81.7102 47.0127L71.9902 63.7647H69.8302L79.5502 47.0127H81.7102ZM71.1982 48.0927C70.6542 48.0927 70.2222 48.2847 69.9022 48.6687C69.5982 49.0367 69.4462 49.5887 69.4462 50.3247C69.4462 51.0607 69.5982 51.6207 69.9022 52.0047C70.2222 52.3887 70.6542 52.5807 71.1982 52.5807C71.7422 52.5807 72.1742 52.3887 72.4942 52.0047C72.8142 51.6047 72.9742 51.0447 72.9742 50.3247C72.9742 49.5887 72.8142 49.0367 72.4942 48.6687C72.1742 48.2847 71.7422 48.0927 71.1982 48.0927ZM76.8862 60.4527C76.8862 59.3487 77.2142 58.4767 77.8702 57.8367C78.5262 57.1807 79.3662 56.8527 80.3902 56.8527C81.4142 56.8527 82.2462 57.1807 82.8862 57.8367C83.5422 58.4767 83.8702 59.3487 83.8702 60.4527C83.8702 61.5407 83.5422 62.4127 82.8862 63.0687C82.2462 63.7247 81.4142 64.0527 80.3902 64.0527C79.3662 64.0527 78.5262 63.7327 77.8702 63.0927C77.2142 62.4367 76.8862 61.5567 76.8862 60.4527ZM80.3662 58.2207C79.8222 58.2207 79.3902 58.4127 79.0702 58.7967C78.7502 59.1647 78.5902 59.7167 78.5902 60.4527C78.5902 61.1727 78.7502 61.7247 79.0702 62.1087C79.3902 62.4767 79.8222 62.6607 80.3662 62.6607C80.9102 62.6607 81.3422 62.4767 81.6622 62.1087C81.9822 61.7247 82.1422 61.1727 82.1422 60.4527C82.1422 59.7167 81.9822 59.1647 81.6622 58.7967C81.3422 58.4127 80.9102 58.2207 80.3662 58.2207Z" fill="white"/>
<path d="M34.5156 79.8487C34.5156 80.5447 34.2756 81.1247 33.7956 81.5887C33.3236 82.0447 32.5996 82.2727 31.6236 82.2727H30.0156V85.7647H28.9236V77.4007H31.6236C32.5676 77.4007 33.2836 77.6287 33.7716 78.0847C34.2676 78.5407 34.5156 79.1287 34.5156 79.8487ZM31.6236 81.3727C32.2316 81.3727 32.6796 81.2407 32.9676 80.9767C33.2556 80.7127 33.3996 80.3367 33.3996 79.8487C33.3996 78.8167 32.8076 78.3007 31.6236 78.3007H30.0156V81.3727H31.6236ZM35.8472 82.4527C35.8472 81.7807 35.9832 81.1927 36.2552 80.6887C36.5272 80.1767 36.8992 79.7807 37.3712 79.5007C37.8512 79.2207 38.3832 79.0807 38.9672 79.0807C39.5432 79.0807 40.0432 79.2047 40.4672 79.4527C40.8912 79.7007 41.2072 80.0127 41.4152 80.3887V79.1887H42.5192V85.7647H41.4152V84.5407C41.1992 84.9247 40.8752 85.2447 40.4432 85.5007C40.0192 85.7487 39.5232 85.8727 38.9552 85.8727C38.3712 85.8727 37.8432 85.7287 37.3712 85.4407C36.8992 85.1527 36.5272 84.7487 36.2552 84.2287C35.9832 83.7087 35.8472 83.1167 35.8472 82.4527ZM41.4152 82.4647C41.4152 81.9687 41.3152 81.5367 41.1152 81.1687C40.9152 80.8007 40.6432 80.5207 40.2992 80.3287C39.9632 80.1287 39.5912 80.0287 39.1832 80.0287C38.7752 80.0287 38.4032 80.1247 38.0672 80.3167C37.7312 80.5087 37.4632 80.7887 37.2632 81.1567C37.0632 81.5247 36.9632 81.9567 36.9632 82.4527C36.9632 82.9567 37.0632 83.3967 37.2632 83.7727C37.4632 84.1407 37.7312 84.4247 38.0672 84.6247C38.4032 84.8167 38.7752 84.9127 39.1832 84.9127C39.5912 84.9127 39.9632 84.8167 40.2992 84.6247C40.6432 84.4247 40.9152 84.1407 41.1152 83.7727C41.3152 83.3967 41.4152 82.9607 41.4152 82.4647ZM44.3389 82.4647C44.3389 81.7847 44.4749 81.1927 44.7469 80.6887C45.0189 80.1767 45.3949 79.7807 45.8749 79.5007C46.3629 79.2207 46.9189 79.0807 47.5429 79.0807C48.3509 79.0807 49.0149 79.2767 49.5349 79.6687C50.0629 80.0607 50.4109 80.6047 50.5789 81.3007H49.4029C49.2909 80.9007 49.0709 80.5847 48.7429 80.3527C48.4229 80.1207 48.0229 80.0047 47.5429 80.0047C46.9189 80.0047 46.4149 80.2207 46.0309 80.6527C45.6469 81.0767 45.4549 81.6807 45.4549 82.4647C45.4549 83.2567 45.6469 83.8687 46.0309 84.3007C46.4149 84.7327 46.9189 84.9487 47.5429 84.9487C48.0229 84.9487 48.4229 84.8367 48.7429 84.6127C49.0629 84.3887 49.2829 84.0687 49.4029 83.6527H50.5789C50.4029 84.3247 50.0509 84.8647 49.5229 85.2727C48.9949 85.6727 48.3349 85.8727 47.5429 85.8727C46.9189 85.8727 46.3629 85.7327 45.8749 85.4527C45.3949 85.1727 45.0189 84.7767 44.7469 84.2647C44.4749 83.7527 44.3389 83.1527 44.3389 82.4647ZM56.0903 85.7647L53.5103 82.8607V85.7647H52.4183V76.8847H53.5103V82.1047L56.0423 79.1887H57.5663L54.4703 82.4647L57.5783 85.7647H56.0903ZM58.5685 82.4527C58.5685 81.7807 58.7045 81.1927 58.9765 80.6887C59.2485 80.1767 59.6205 79.7807 60.0925 79.5007C60.5725 79.2207 61.1045 79.0807 61.6885 79.0807C62.2645 79.0807 62.7645 79.2047 63.1885 79.4527C63.6125 79.7007 63.9285 80.0127 64.1365 80.3887V79.1887H65.2405V85.7647H64.1365V84.5407C63.9205 84.9247 63.5965 85.2447 63.1645 85.5007C62.7405 85.7487 62.2445 85.8727 61.6765 85.8727C61.0925 85.8727 60.5645 85.7287 60.0925 85.4407C59.6205 85.1527 59.2485 84.7487 58.9765 84.2287C58.7045 83.7087 58.5685 83.1167 58.5685 82.4527ZM64.1365 82.4647C64.1365 81.9687 64.0365 81.5367 63.8365 81.1687C63.6365 80.8007 63.3645 80.5207 63.0205 80.3287C62.6845 80.1287 62.3125 80.0287 61.9045 80.0287C61.4965 80.0287 61.1245 80.1247 60.7885 80.3167C60.4525 80.5087 60.1845 80.7887 59.9845 81.1567C59.7845 81.5247 59.6845 81.9567 59.6845 82.4527C59.6845 82.9567 59.7845 83.3967 59.9845 83.7727C60.1845 84.1407 60.4525 84.4247 60.7885 84.6247C61.1245 84.8167 61.4965 84.9127 61.9045 84.9127C62.3125 84.9127 62.6845 84.8167 63.0205 84.6247C63.3645 84.4247 63.6365 84.1407 63.8365 83.7727C64.0365 83.3967 64.1365 82.9607 64.1365 82.4647ZM70.1802 79.0807C70.7482 79.0807 71.2442 79.2047 71.6682 79.4527C72.1002 79.7007 72.4202 80.0127 72.6282 80.3887V79.1887H73.7322V85.9087C73.7322 86.5087 73.6042 87.0407 73.3482 87.5047C73.0922 87.9767 72.7242 88.3447 72.2442 88.6087C71.7722 88.8727 71.2202 89.0047 70.5882 89.0047C69.7242 89.0047 69.0042 88.8007 68.4282 88.3927C67.8522 87.9847 67.5122 87.4287 67.4082 86.7247H68.4882C68.6082 87.1247 68.8562 87.4447 69.2322 87.6847C69.6082 87.9327 70.0602 88.0567 70.5882 88.0567C71.1882 88.0567 71.6762 87.8687 72.0522 87.4927C72.4362 87.1167 72.6282 86.5887 72.6282 85.9087V84.5287C72.4122 84.9127 72.0922 85.2327 71.6682 85.4887C71.2442 85.7447 70.7482 85.8727 70.1802 85.8727C69.5962 85.8727 69.0642 85.7287 68.5842 85.4407C68.1122 85.1527 67.7402 84.7487 67.4682 84.2287C67.1962 83.7087 67.0602 83.1167 67.0602 82.4527C67.0602 81.7807 67.1962 81.1927 67.4682 80.6887C67.7402 80.1767 68.1122 79.7807 68.5842 79.5007C69.0642 79.2207 69.5962 79.0807 70.1802 79.0807ZM72.6282 82.4647C72.6282 81.9687 72.5282 81.5367 72.3282 81.1687C72.1282 80.8007 71.8562 80.5207 71.5122 80.3287C71.1762 80.1287 70.8042 80.0287 70.3962 80.0287C69.9882 80.0287 69.6162 80.1247 69.2802 80.3167C68.9442 80.5087 68.6762 80.7887 68.4762 81.1567C68.2762 81.5247 68.1762 81.9567 68.1762 82.4527C68.1762 82.9567 68.2762 83.3967 68.4762 83.7727C68.6762 84.1407 68.9442 84.4247 69.2802 84.6247C69.6162 84.8167 69.9882 84.9127 70.3962 84.9127C70.8042 84.9127 71.1762 84.8167 71.5122 84.6247C71.8562 84.4247 72.1282 84.1407 72.3282 83.7727C72.5282 83.3967 72.6282 82.9607 72.6282 82.4647ZM76.5239 78.1207C76.3159 78.1207 76.1399 78.0487 75.9959 77.9047C75.8519 77.7607 75.7799 77.5847 75.7799 77.3767C75.7799 77.1687 75.8519 76.9927 75.9959 76.8487C76.1399 76.7047 76.3159 76.6327 76.5239 76.6327C76.7239 76.6327 76.8919 76.7047 77.0279 76.8487C77.1719 76.9927 77.2439 77.1687 77.2439 77.3767C77.2439 77.5847 77.1719 77.7607 77.0279 77.9047C76.8919 78.0487 76.7239 78.1207 76.5239 78.1207ZM77.0519 79.1887V85.7647H75.9599V79.1887H77.0519ZM82.4994 79.0687C83.2994 79.0687 83.9474 79.3127 84.4434 79.8007C84.9394 80.2807 85.1874 80.9767 85.1874 81.8887V85.7647H84.1074V82.0447C84.1074 81.3887 83.9434 80.8887 83.6154 80.5447C83.2874 80.1927 82.8394 80.0167 82.2714 80.0167C81.6954 80.0167 81.2354 80.1967 80.8914 80.5567C80.5554 80.9167 80.3874 81.4407 80.3874 82.1287V85.7647H79.2954V79.1887H80.3874V80.1247C80.6034 79.7887 80.8954 79.5287 81.2634 79.3447C81.6394 79.1607 82.0514 79.0687 82.4994 79.0687ZM90.0655 79.0807C90.6335 79.0807 91.1295 79.2047 91.5535 79.4527C91.9855 79.7007 92.3055 80.0127 92.5135 80.3887V79.1887H93.6175V85.9087C93.6175 86.5087 93.4895 87.0407 93.2335 87.5047C92.9775 87.9767 92.6095 88.3447 92.1295 88.6087C91.6575 88.8727 91.1055 89.0047 90.4735 89.0047C89.6095 89.0047 88.8895 88.8007 88.3135 88.3927C87.7375 87.9847 87.3975 87.4287 87.2935 86.7247H88.3735C88.4935 87.1247 88.7415 87.4447 89.1175 87.6847C89.4935 87.9327 89.9455 88.0567 90.4735 88.0567C91.0735 88.0567 91.5615 87.8687 91.9375 87.4927C92.3215 87.1167 92.5135 86.5887 92.5135 85.9087V84.5287C92.2975 84.9127 91.9775 85.2327 91.5535 85.4887C91.1295 85.7447 90.6335 85.8727 90.0655 85.8727C89.4815 85.8727 88.9495 85.7287 88.4695 85.4407C87.9975 85.1527 87.6255 84.7487 87.3535 84.2287C87.0815 83.7087 86.9455 83.1167 86.9455 82.4527C86.9455 81.7807 87.0815 81.1927 87.3535 80.6887C87.6255 80.1767 87.9975 79.7807 88.4695 79.5007C88.9495 79.2207 89.4815 79.0807 90.0655 79.0807ZM92.5135 82.4647C92.5135 81.9687 92.4135 81.5367 92.2135 81.1687C92.0135 80.8007 91.7415 80.5207 91.3975 80.3287C91.0615 80.1287 90.6895 80.0287 90.2815 80.0287C89.8735 80.0287 89.5015 80.1247 89.1655 80.3167C88.8295 80.5087 88.5615 80.7887 88.3615 81.1567C88.1615 81.5247 88.0615 81.9567 88.0615 82.4527C88.0615 82.9567 88.1615 83.3967 88.3615 83.7727C88.5615 84.1407 88.8295 84.4247 89.1655 84.6247C89.5015 84.8167 89.8735 84.9127 90.2815 84.9127C90.6895 84.9127 91.0615 84.8167 91.3975 84.6247C91.7415 84.4247 92.0135 84.1407 92.2135 83.7727C92.4135 83.3967 92.5135 82.9607 92.5135 82.4647Z" fill="white"/>
<path d="M61.1731 0.764709C97.0716 0.764709 126.173 29.8662 126.173 65.7647C126.173 101.663 97.0716 130.765 61.1731 130.765C36.6435 130.765 15.2874 117.177 4.22089 97.1177" stroke="#2FBFDE" stroke-width="1.52941"/>
</svg>
