<svg width="108" height="112" viewBox="0 0 108 112" fill="none" xmlns="http://www.w3.org/2000/svg">
<circle opacity="0.8" cx="51.8791" cy="55.5276" r="51.8791" fill="#6463D6"/>
<path d="M34.027 47.8459C33.2523 47.5415 32.6574 47.0988 32.2424 46.5178C31.8274 45.9368 31.6198 45.2312 31.6198 44.4011C31.6198 43.6541 31.8066 42.9831 32.1801 42.3882C32.5537 41.7795 33.1071 41.3022 33.8403 40.9564C34.5873 40.5967 35.4866 40.4168 36.538 40.4168C37.5894 40.4168 38.4817 40.5967 39.215 40.9564C39.962 41.3022 40.5223 41.7795 40.8958 42.3882C41.2832 42.9831 41.4769 43.6541 41.4769 44.4011C41.4769 45.2035 41.2625 45.9091 40.8336 46.5178C40.4047 47.1127 39.8168 47.5554 39.0697 47.8459C39.9274 48.1088 40.6053 48.5722 41.1034 49.2363C41.6152 49.8865 41.8712 50.675 41.8712 51.602C41.8712 52.5012 41.6498 53.2898 41.2071 53.9676C40.7644 54.6317 40.1349 55.1505 39.3187 55.524C38.5163 55.8837 37.5894 56.0636 36.538 56.0636C35.4866 56.0636 34.5597 55.8837 33.7573 55.524C32.9687 55.1505 32.3531 54.6317 31.9104 53.9676C31.4677 53.2898 31.2463 52.5012 31.2463 51.602C31.2463 50.675 31.4953 49.8796 31.9934 49.2155C32.4914 48.5515 33.1693 48.0949 34.027 47.8459ZM39.6507 44.6294C39.6507 43.7855 39.3741 43.1353 38.8207 42.6787C38.2673 42.2222 37.5064 41.9939 36.538 41.9939C35.5834 41.9939 34.8294 42.2222 34.2761 42.6787C33.7227 43.1353 33.446 43.7924 33.446 44.6502C33.446 45.4249 33.7296 46.0474 34.2968 46.5178C34.8779 46.9882 35.6249 47.2234 36.538 47.2234C37.4649 47.2234 38.212 46.9882 38.7792 46.5178C39.3602 46.0336 39.6507 45.4041 39.6507 44.6294ZM36.538 48.676C35.5142 48.676 34.6773 48.9181 34.027 49.4023C33.3768 49.8727 33.0517 50.5851 33.0517 51.5397C33.0517 52.4251 33.363 53.1376 33.9855 53.6771C34.6219 54.2167 35.4727 54.4864 36.538 54.4864C37.6032 54.4864 38.4471 54.2167 39.0697 53.6771C39.6922 53.1376 40.0035 52.4251 40.0035 51.5397C40.0035 50.6128 39.6853 49.9072 39.0489 49.423C38.4126 48.925 37.5756 48.676 36.538 48.676ZM54.27 42.2845H46.9861V47.0158C47.3043 46.5731 47.7747 46.2134 48.3972 45.9368C49.0198 45.6462 49.6908 45.501 50.4101 45.501C51.5584 45.501 52.4922 45.7431 53.2116 46.2273C53.931 46.6976 54.4429 47.3133 54.7472 48.0742C55.0654 48.8212 55.2245 49.6167 55.2245 50.4606C55.2245 51.4567 55.0378 52.349 54.6642 53.1376C54.2907 53.9261 53.7166 54.5487 52.9419 55.0052C52.181 55.4618 51.2333 55.69 50.0989 55.69C48.6463 55.69 47.4703 55.3165 46.5711 54.5694C45.6719 53.8224 45.1254 52.8263 44.9317 51.5812H46.7786C46.9585 52.3698 47.3389 52.9854 47.92 53.4281C48.501 53.8708 49.2342 54.0922 50.1196 54.0922C51.2125 54.0922 52.0357 53.767 52.5891 53.1168C53.1425 52.4528 53.4191 51.5812 53.4191 50.5021C53.4191 49.423 53.1425 48.593 52.5891 48.0119C52.0357 47.417 51.2195 47.1196 50.1404 47.1196C49.4072 47.1196 48.7639 47.2994 48.2105 47.6591C47.6709 48.005 47.2766 48.4823 47.0276 49.091H45.243V40.6243H54.27V42.2845ZM57.6432 44.0276C57.6432 43.0869 57.9268 42.3398 58.4941 41.7864C59.0613 41.2192 59.7876 40.9356 60.673 40.9356C61.5584 40.9356 62.2847 41.2192 62.8519 41.7864C63.4191 42.3398 63.7027 43.0869 63.7027 44.0276C63.7027 44.9822 63.4191 45.7431 62.8519 46.3103C62.2847 46.8637 61.5584 47.1403 60.673 47.1403C59.7876 47.1403 59.0613 46.8637 58.4941 46.3103C57.9268 45.7431 57.6432 44.9822 57.6432 44.0276ZM69.7622 41.1639L61.3578 55.6485H59.4901L67.8946 41.1639H69.7622ZM60.673 42.0977C60.2026 42.0977 59.8291 42.2637 59.5524 42.5957C59.2895 42.9139 59.1581 43.3912 59.1581 44.0276C59.1581 44.664 59.2895 45.1482 59.5524 45.4802C59.8291 45.8122 60.2026 45.9783 60.673 45.9783C61.1433 45.9783 61.5169 45.8122 61.7936 45.4802C62.0703 45.1344 62.2086 44.6502 62.2086 44.0276C62.2086 43.3912 62.0703 42.9139 61.7936 42.5957C61.5169 42.2637 61.1433 42.0977 60.673 42.0977ZM65.5911 52.7848C65.5911 51.8302 65.8747 51.0762 66.4419 50.5229C67.0092 49.9557 67.7355 49.6721 68.6209 49.6721C69.5063 49.6721 70.2257 49.9557 70.779 50.5229C71.3462 51.0762 71.6299 51.8302 71.6299 52.7848C71.6299 53.7255 71.3462 54.4795 70.779 55.0467C70.2257 55.6139 69.5063 55.8975 68.6209 55.8975C67.7355 55.8975 67.0092 55.6209 66.4419 55.0675C65.8747 54.5003 65.5911 53.7394 65.5911 52.7848ZM68.6001 50.8549C68.1297 50.8549 67.7562 51.0209 67.4795 51.3529C67.2028 51.6711 67.0645 52.1484 67.0645 52.7848C67.0645 53.4074 67.2028 53.8846 67.4795 54.2167C67.7562 54.5349 68.1297 54.694 68.6001 54.694C69.0705 54.694 69.444 54.5349 69.7207 54.2167C69.9974 53.8846 70.1357 53.4074 70.1357 52.7848C70.1357 52.1484 69.9974 51.6711 69.7207 51.3529C69.444 51.0209 69.0705 50.8549 68.6001 50.8549Z" fill="white"/>
<path d="M33.3689 66.2241V74.5881H32.2769V70.7961H28.0169V74.5881H26.9249V66.2241H28.0169V69.8961H32.2769V66.2241H33.3689ZM41.2218 68.0121L37.2618 77.6841H36.1338L37.4298 74.5161L34.7778 68.0121H35.9898L38.0538 73.3401L40.0938 68.0121H41.2218ZM45.3557 67.9041C45.9237 67.9041 46.4197 68.0281 46.8437 68.2761C47.2757 68.5241 47.5957 68.8361 47.8037 69.2121V68.0121H48.9077V74.7321C48.9077 75.3321 48.7797 75.8641 48.5237 76.3281C48.2677 76.8001 47.8997 77.1681 47.4197 77.4321C46.9477 77.6961 46.3957 77.8281 45.7637 77.8281C44.8997 77.8281 44.1797 77.6241 43.6037 77.2161C43.0277 76.8081 42.6877 76.2521 42.5837 75.5481H43.6637C43.7837 75.9481 44.0317 76.2681 44.4077 76.5081C44.7837 76.7561 45.2357 76.8801 45.7637 76.8801C46.3637 76.8801 46.8517 76.6921 47.2277 76.3161C47.6117 75.9401 47.8037 75.4121 47.8037 74.7321V73.3521C47.5877 73.7361 47.2677 74.0561 46.8437 74.3121C46.4197 74.5681 45.9237 74.6961 45.3557 74.6961C44.7717 74.6961 44.2397 74.5521 43.7597 74.2641C43.2877 73.9761 42.9157 73.5721 42.6437 73.0521C42.3717 72.5321 42.2357 71.9401 42.2357 71.2761C42.2357 70.6041 42.3717 70.0161 42.6437 69.5121C42.9157 69.0001 43.2877 68.6041 43.7597 68.3241C44.2397 68.0441 44.7717 67.9041 45.3557 67.9041ZM47.8037 71.2881C47.8037 70.7921 47.7037 70.3601 47.5037 69.9921C47.3037 69.6241 47.0317 69.3441 46.6877 69.1521C46.3517 68.9521 45.9797 68.8521 45.5717 68.8521C45.1637 68.8521 44.7917 68.9481 44.4557 69.1401C44.1197 69.3321 43.8517 69.6121 43.6517 69.9801C43.4517 70.3481 43.3517 70.7801 43.3517 71.2761C43.3517 71.7801 43.4517 72.2201 43.6517 72.5961C43.8517 72.9641 44.1197 73.2481 44.4557 73.4481C44.7917 73.6401 45.1637 73.7361 45.5717 73.7361C45.9797 73.7361 46.3517 73.6401 46.6877 73.4481C47.0317 73.2481 47.3037 72.9641 47.5037 72.5961C47.7037 72.2201 47.8037 71.7841 47.8037 71.2881ZM51.6414 66.9441C51.4334 66.9441 51.2574 66.8721 51.1134 66.7281C50.9694 66.5841 50.8974 66.4081 50.8974 66.2001C50.8974 65.9921 50.9694 65.8161 51.1134 65.6721C51.2574 65.5281 51.4334 65.4561 51.6414 65.4561C51.8414 65.4561 52.0094 65.5281 52.1454 65.6721C52.2894 65.8161 52.3614 65.9921 52.3614 66.2001C52.3614 66.4081 52.2894 66.5841 52.1454 66.7281C52.0094 66.8721 51.8414 66.9441 51.6414 66.9441ZM52.1694 68.0121V74.5881H51.0774V68.0121H52.1694ZM60.3547 71.0481C60.3547 71.2561 60.3427 71.4761 60.3187 71.7081H55.0627C55.1027 72.3561 55.3227 72.8641 55.7227 73.2321C56.1307 73.5921 56.6227 73.7721 57.1987 73.7721C57.6707 73.7721 58.0627 73.6641 58.3747 73.4481C58.6947 73.2241 58.9187 72.9281 59.0467 72.5601H60.2227C60.0467 73.1921 59.6947 73.7081 59.1667 74.1081C58.6387 74.5001 57.9827 74.6961 57.1987 74.6961C56.5747 74.6961 56.0147 74.5561 55.5187 74.2761C55.0307 73.9961 54.6467 73.6001 54.3667 73.0881C54.0867 72.5681 53.9467 71.9681 53.9467 71.2881C53.9467 70.6081 54.0827 70.0121 54.3547 69.5001C54.6267 68.9881 55.0067 68.5961 55.4947 68.3241C55.9907 68.0441 56.5587 67.9041 57.1987 67.9041C57.8227 67.9041 58.3747 68.0401 58.8547 68.3121C59.3347 68.5841 59.7027 68.9601 59.9587 69.4401C60.2227 69.9121 60.3547 70.4481 60.3547 71.0481ZM59.2267 70.8201C59.2267 70.4041 59.1347 70.0481 58.9507 69.7521C58.7667 69.4481 58.5147 69.2201 58.1947 69.0681C57.8827 68.9081 57.5347 68.8281 57.1507 68.8281C56.5987 68.8281 56.1267 69.0041 55.7347 69.3561C55.3507 69.7081 55.1307 70.1961 55.0747 70.8201H59.2267ZM65.3244 67.8921C66.1244 67.8921 66.7724 68.1361 67.2684 68.6241C67.7644 69.1041 68.0124 69.8001 68.0124 70.7121V74.5881H66.9324V70.8681C66.9324 70.2121 66.7684 69.7121 66.4404 69.3681C66.1124 69.0161 65.6644 68.8401 65.0964 68.8401C64.5204 68.8401 64.0604 69.0201 63.7164 69.3801C63.3804 69.7401 63.2124 70.2641 63.2124 70.9521V74.5881H62.1204V68.0121H63.2124V68.9481C63.4284 68.6121 63.7204 68.3521 64.0884 68.1681C64.4644 67.9841 64.8764 67.8921 65.3244 67.8921ZM76.1204 71.0481C76.1204 71.2561 76.1084 71.4761 76.0844 71.7081H70.8284C70.8684 72.3561 71.0884 72.8641 71.4884 73.2321C71.8964 73.5921 72.3884 73.7721 72.9644 73.7721C73.4364 73.7721 73.8284 73.6641 74.1404 73.4481C74.4604 73.2241 74.6844 72.9281 74.8124 72.5601H75.9884C75.8124 73.1921 75.4604 73.7081 74.9324 74.1081C74.4044 74.5001 73.7484 74.6961 72.9644 74.6961C72.3404 74.6961 71.7804 74.5561 71.2844 74.2761C70.7964 73.9961 70.4124 73.6001 70.1324 73.0881C69.8524 72.5681 69.7124 71.9681 69.7124 71.2881C69.7124 70.6081 69.8484 70.0121 70.1204 69.5001C70.3924 68.9881 70.7724 68.5961 71.2604 68.3241C71.7564 68.0441 72.3244 67.9041 72.9644 67.9041C73.5884 67.9041 74.1404 68.0401 74.6204 68.3121C75.1004 68.5841 75.4684 68.9601 75.7244 69.4401C75.9884 69.9121 76.1204 70.4481 76.1204 71.0481ZM74.9924 70.8201C74.9924 70.4041 74.9004 70.0481 74.7164 69.7521C74.5324 69.4481 74.2804 69.2201 73.9604 69.0681C73.6484 68.9081 73.3004 68.8281 72.9164 68.8281C72.3644 68.8281 71.8924 69.0041 71.5004 69.3561C71.1164 69.7081 70.8964 70.1961 70.8404 70.8201H74.9924Z" fill="white"/>
<path d="M51.8784 0.648483C82.3212 0.648483 107 25.3273 107 55.7701C107 86.2129 82.3212 110.892 51.8784 110.892C31.0767 110.892 12.9662 99.3689 3.58154 82.3581" stroke="#6463D6" stroke-width="1.29698"/>
</svg>
