<svg width="176" height="182" viewBox="0 0 176 182" fill="none" xmlns="http://www.w3.org/2000/svg">
<circle opacity="0.9" cx="84.3643" cy="90.6916" r="84.3643" fill="#F99C30"/>
<path d="M56.1114 79.5848C54.8516 79.0899 53.8842 78.37 53.2093 77.4251C52.5344 76.4802 52.1969 75.3329 52.1969 73.983C52.1969 72.7682 52.5006 71.6771 53.108 70.7097C53.7155 69.7198 54.6153 68.9437 55.8077 68.3812C57.0225 67.7963 58.4848 67.5038 60.1946 67.5038C61.9044 67.5038 63.3555 67.7963 64.5478 68.3812C65.7627 68.9437 66.6738 69.7198 67.2812 70.7097C67.9112 71.6771 68.2261 72.7682 68.2261 73.983C68.2261 75.2879 67.8774 76.4352 67.18 77.4251C66.4826 78.3925 65.5265 79.1124 64.3116 79.5848C65.7064 80.0123 66.8088 80.7659 67.6187 81.8458C68.4511 82.9031 68.8673 84.1855 68.8673 85.6928C68.8673 87.1551 68.5073 88.4374 67.7874 89.5398C67.0675 90.6197 66.0439 91.4633 64.7166 92.0707C63.4117 92.6557 61.9044 92.9481 60.1946 92.9481C58.4848 92.9481 56.9775 92.6557 55.6727 92.0707C54.3904 91.4633 53.3892 90.6197 52.6693 89.5398C51.9494 88.4374 51.5895 87.1551 51.5895 85.6928C51.5895 84.1855 51.9944 82.8919 52.8043 81.812C53.6142 80.7322 54.7166 79.9898 56.1114 79.5848ZM65.2565 74.3542C65.2565 72.9819 64.8065 71.9245 63.9067 71.1821C63.0068 70.4397 61.7694 70.0685 60.1946 70.0685C58.6423 70.0685 57.4162 70.4397 56.5163 71.1821C55.6165 71.9245 55.1665 72.9932 55.1665 74.388C55.1665 75.6478 55.6277 76.6602 56.5501 77.4251C57.495 78.19 58.7098 78.5724 60.1946 78.5724C61.7019 78.5724 62.9168 78.19 63.8392 77.4251C64.7841 76.6377 65.2565 75.6141 65.2565 74.3542ZM60.1946 80.9346C58.5298 80.9346 57.1688 81.3283 56.1114 82.1157C55.054 82.8806 54.5253 84.0393 54.5253 85.5916C54.5253 87.0314 55.0315 88.19 56.0439 89.0674C57.0788 89.9448 58.4624 90.3834 60.1946 90.3834C61.9269 90.3834 63.2992 89.9448 64.3116 89.0674C65.324 88.19 65.8302 87.0314 65.8302 85.5916C65.8302 84.0842 65.3127 82.9369 64.2779 82.1495C63.243 81.3396 61.8819 80.9346 60.1946 80.9346ZM89.0298 70.541H77.1851V78.235C77.7025 77.5151 78.4674 76.9302 79.4798 76.4802C80.4922 76.0078 81.5833 75.7715 82.7531 75.7715C84.6204 75.7715 86.1389 76.1652 87.3088 76.9526C88.4786 77.7176 89.311 78.7187 89.806 79.956C90.3234 81.1709 90.5821 82.4645 90.5821 83.8368C90.5821 85.4566 90.2784 86.9076 89.671 88.19C89.0636 89.4723 88.1299 90.4847 86.8701 91.2271C85.6328 91.9695 84.0917 92.3407 82.2469 92.3407C79.8847 92.3407 77.9725 91.7333 76.5102 90.5184C75.0478 89.3036 74.1592 87.6838 73.8442 85.659H76.8476C77.1401 86.9414 77.7588 87.9425 78.7036 88.6624C79.6485 89.3823 80.8409 89.7423 82.2807 89.7423C84.058 89.7423 85.3965 89.2136 86.2964 88.1562C87.1963 87.0764 87.6463 85.659 87.6463 83.9043C87.6463 82.1495 87.1963 80.7997 86.2964 79.8548C85.3965 78.8874 84.0692 78.4037 82.3144 78.4037C81.1221 78.4037 80.076 78.6962 79.1761 79.2811C78.2987 79.8435 77.6575 80.6197 77.2526 81.6096H74.3504V67.8413H89.0298V70.541ZM94.5154 73.3756C94.5154 71.8458 94.9765 70.631 95.8989 69.7311C96.8213 68.8087 98.0024 68.3475 99.4422 68.3475C100.882 68.3475 102.063 68.8087 102.986 69.7311C103.908 70.631 104.369 71.8458 104.369 73.3756C104.369 74.9279 103.908 76.1652 102.986 77.0876C102.063 77.9875 100.882 78.4375 99.4422 78.4375C98.0024 78.4375 96.8213 77.9875 95.8989 77.0876C94.9765 76.1652 94.5154 74.9279 94.5154 73.3756ZM114.223 68.7187L100.556 92.2732H97.5187L111.186 68.7187H114.223ZM99.4422 70.2372C98.6773 70.2372 98.0699 70.5072 97.62 71.0471C97.1925 71.5646 96.9788 72.3407 96.9788 73.3756C96.9788 74.4105 97.1925 75.1979 97.62 75.7378C98.0699 76.2777 98.6773 76.5477 99.4422 76.5477C100.207 76.5477 100.815 76.2777 101.264 75.7378C101.714 75.1754 101.939 74.388 101.939 73.3756C101.939 72.3407 101.714 71.5646 101.264 71.0471C100.815 70.5072 100.207 70.2372 99.4422 70.2372ZM107.44 87.6163C107.44 86.064 107.901 84.8379 108.824 83.938C109.746 83.0156 110.927 82.5544 112.367 82.5544C113.807 82.5544 114.977 83.0156 115.876 83.938C116.799 84.8379 117.26 86.064 117.26 87.6163C117.26 89.1461 116.799 90.3722 115.876 91.2946C114.977 92.217 113.807 92.6782 112.367 92.6782C110.927 92.6782 109.746 92.2282 108.824 91.3283C107.901 90.4059 107.44 89.1686 107.44 87.6163ZM112.333 84.4779C111.568 84.4779 110.961 84.7479 110.511 85.2878C110.061 85.8053 109.836 86.5814 109.836 87.6163C109.836 88.6287 110.061 89.4048 110.511 89.9448C110.961 90.4622 111.568 90.7209 112.333 90.7209C113.098 90.7209 113.705 90.4622 114.155 89.9448C114.605 89.4048 114.83 88.6287 114.83 87.6163C114.83 86.5814 114.605 85.8053 114.155 85.2878C113.705 84.7479 113.098 84.4779 112.333 84.4779Z" fill="white"/>
<path d="M52.9597 107.234V108.171H49.1253V111.145H52.2384V112.081H49.1253V116.055H47.9738V107.234H52.9597ZM57.9023 116.168C57.2527 116.168 56.6621 116.021 56.1306 115.726C55.6076 115.43 55.1942 115.013 54.8905 114.473C54.5952 113.924 54.4475 113.292 54.4475 112.575C54.4475 111.866 54.5994 111.242 54.9031 110.702C55.2153 110.153 55.6371 109.736 56.1686 109.449C56.7001 109.154 57.2948 109.006 57.9529 109.006C58.6109 109.006 59.2057 109.154 59.7372 109.449C60.2687 109.736 60.6863 110.149 60.99 110.689C61.3021 111.229 61.4582 111.857 61.4582 112.575C61.4582 113.292 61.2979 113.924 60.9773 114.473C60.6652 115.013 60.2392 115.43 59.6992 115.726C59.1593 116.021 58.5603 116.168 57.9023 116.168ZM57.9023 115.156C58.3156 115.156 58.7037 115.059 59.0665 114.865C59.4293 114.671 59.7203 114.38 59.9397 113.992C60.1674 113.604 60.2813 113.131 60.2813 112.575C60.2813 112.018 60.1717 111.545 59.9523 111.157C59.733 110.769 59.4461 110.482 59.0918 110.297C58.7375 110.103 58.3536 110.006 57.9402 110.006C57.5184 110.006 57.1303 110.103 56.776 110.297C56.4301 110.482 56.1517 110.769 55.9408 111.157C55.7299 111.545 55.6244 112.018 55.6244 112.575C55.6244 113.14 55.7257 113.616 55.9281 114.005C56.139 114.393 56.4174 114.684 56.7633 114.878C57.1092 115.063 57.4889 115.156 57.9023 115.156ZM66.5241 116.168C65.8745 116.168 65.2839 116.021 64.7524 115.726C64.2294 115.43 63.816 115.013 63.5123 114.473C63.217 113.924 63.0693 113.292 63.0693 112.575C63.0693 111.866 63.2212 111.242 63.5249 110.702C63.8371 110.153 64.2589 109.736 64.7904 109.449C65.3219 109.154 65.9166 109.006 66.5747 109.006C67.2327 109.006 67.8275 109.154 68.359 109.449C68.8905 109.736 69.3081 110.149 69.6118 110.689C69.9239 111.229 70.08 111.857 70.08 112.575C70.08 113.292 69.9197 113.924 69.5991 114.473C69.287 115.013 68.861 115.43 68.321 115.726C67.7811 116.021 67.1821 116.168 66.5241 116.168ZM66.5241 115.156C66.9374 115.156 67.3255 115.059 67.6883 114.865C68.0511 114.671 68.3421 114.38 68.5615 113.992C68.7892 113.604 68.9031 113.131 68.9031 112.575C68.9031 112.018 68.7935 111.545 68.5741 111.157C68.3548 110.769 68.0679 110.482 67.7136 110.297C67.3593 110.103 66.9754 110.006 66.562 110.006C66.1402 110.006 65.7521 110.103 65.3978 110.297C65.0519 110.482 64.7735 110.769 64.5626 111.157C64.3517 111.545 64.2462 112.018 64.2462 112.575C64.2462 113.14 64.3475 113.616 64.5499 114.005C64.7608 114.393 65.0392 114.684 65.3851 114.878C65.731 115.063 66.1107 115.156 66.5241 115.156ZM71.6911 112.562C71.6911 111.853 71.8346 111.233 72.1214 110.702C72.4082 110.162 72.8005 109.744 73.2983 109.449C73.8045 109.154 74.3697 109.006 74.994 109.006C75.5339 109.006 76.0359 109.132 76.4999 109.386C76.9639 109.63 77.3182 109.955 77.5629 110.36V106.69H78.7271V116.055H77.5629V114.751C77.3351 115.165 76.9977 115.506 76.5505 115.776C76.1034 116.038 75.5803 116.168 74.9814 116.168C74.3655 116.168 73.8045 116.017 73.2983 115.713C72.8005 115.409 72.4082 114.983 72.1214 114.435C71.8346 113.886 71.6911 113.262 71.6911 112.562ZM77.5629 112.575C77.5629 112.051 77.4574 111.596 77.2465 111.208C77.0356 110.82 76.7488 110.525 76.386 110.322C76.0317 110.111 75.6394 110.006 75.2091 110.006C74.7789 110.006 74.3866 110.107 74.0323 110.309C73.6779 110.512 73.3953 110.807 73.1844 111.195C72.9735 111.583 72.868 112.039 72.868 112.562C72.868 113.093 72.9735 113.557 73.1844 113.954C73.3953 114.342 73.6779 114.641 74.0323 114.852C74.3866 115.055 74.7789 115.156 75.2091 115.156C75.6394 115.156 76.0317 115.055 76.386 114.852C76.7488 114.641 77.0356 114.342 77.2465 113.954C77.4574 113.557 77.5629 113.098 77.5629 112.575ZM90.5303 107.234V108.171H88.1259V116.055H86.9744V108.171H84.5573V107.234H90.5303ZM92.0449 112.562C92.0449 111.853 92.1883 111.233 92.4751 110.702C92.762 110.162 93.1542 109.744 93.652 109.449C94.1582 109.154 94.7192 109.006 95.3351 109.006C95.9425 109.006 96.4698 109.137 96.9169 109.398C97.364 109.66 97.6973 109.989 97.9166 110.385V109.12H99.0808V116.055H97.9166V114.764C97.6888 115.169 97.3472 115.506 96.8916 115.776C96.4445 116.038 95.9214 116.168 95.3224 116.168C94.7065 116.168 94.1497 116.017 93.652 115.713C93.1542 115.409 92.762 114.983 92.4751 114.435C92.1883 113.886 92.0449 113.262 92.0449 112.562ZM97.9166 112.575C97.9166 112.051 97.8112 111.596 97.6002 111.208C97.3893 110.82 97.1025 110.525 96.7397 110.322C96.3854 110.111 95.9931 110.006 95.5628 110.006C95.1326 110.006 94.7403 110.107 94.386 110.309C94.0316 110.512 93.749 110.807 93.5381 111.195C93.3272 111.583 93.2217 112.039 93.2217 112.562C93.2217 113.093 93.3272 113.557 93.5381 113.954C93.749 114.342 94.0316 114.641 94.386 114.852C94.7403 115.055 95.1326 115.156 95.5628 115.156C95.9931 115.156 96.3854 115.055 96.7397 114.852C97.1025 114.641 97.3893 114.342 97.6002 113.954C97.8112 113.557 97.9166 113.098 97.9166 112.575ZM104.009 116.168C103.478 116.168 103.001 116.08 102.579 115.903C102.157 115.717 101.824 115.464 101.579 115.143C101.335 114.814 101.2 114.439 101.175 114.017H102.364C102.398 114.363 102.558 114.646 102.845 114.865C103.14 115.084 103.524 115.194 103.997 115.194C104.435 115.194 104.781 115.097 105.034 114.903C105.287 114.709 105.414 114.464 105.414 114.169C105.414 113.865 105.279 113.642 105.009 113.498C104.739 113.346 104.321 113.199 103.756 113.055C103.241 112.92 102.82 112.785 102.491 112.65C102.17 112.507 101.892 112.3 101.655 112.03C101.428 111.752 101.314 111.389 101.314 110.942C101.314 110.588 101.419 110.263 101.63 109.968C101.841 109.672 102.14 109.44 102.529 109.272C102.917 109.095 103.36 109.006 103.857 109.006C104.625 109.006 105.245 109.2 105.718 109.588C106.19 109.976 106.443 110.508 106.477 111.183H105.325C105.3 110.82 105.152 110.529 104.882 110.309C104.621 110.09 104.266 109.98 103.819 109.98C103.406 109.98 103.077 110.069 102.832 110.246C102.588 110.423 102.465 110.655 102.465 110.942C102.465 111.17 102.537 111.36 102.68 111.512C102.832 111.655 103.018 111.773 103.237 111.866C103.465 111.95 103.777 112.047 104.174 112.157C104.671 112.292 105.076 112.427 105.389 112.562C105.701 112.688 105.966 112.882 106.186 113.144C106.414 113.406 106.532 113.747 106.54 114.169C106.54 114.549 106.435 114.89 106.224 115.194C106.013 115.498 105.713 115.738 105.325 115.915C104.946 116.084 104.507 116.168 104.009 116.168ZM110.098 110.069V114.156C110.098 114.494 110.169 114.734 110.313 114.878C110.456 115.013 110.705 115.08 111.059 115.08H111.907V116.055H110.87C110.228 116.055 109.748 115.907 109.427 115.612C109.106 115.316 108.946 114.831 108.946 114.156V110.069H108.048V109.12H108.946V107.373H110.098V109.12H111.907V110.069H110.098ZM120.157 112.321C120.157 112.541 120.144 112.773 120.119 113.017H114.576C114.619 113.701 114.851 114.237 115.272 114.625C115.703 115.004 116.222 115.194 116.829 115.194C117.327 115.194 117.74 115.08 118.069 114.852C118.407 114.616 118.643 114.304 118.778 113.916H120.018C119.832 114.582 119.461 115.127 118.904 115.548C118.348 115.962 117.656 116.168 116.829 116.168C116.171 116.168 115.58 116.021 115.057 115.726C114.543 115.43 114.138 115.013 113.842 114.473C113.547 113.924 113.4 113.292 113.4 112.575C113.4 111.857 113.543 111.229 113.83 110.689C114.117 110.149 114.517 109.736 115.032 109.449C115.555 109.154 116.154 109.006 116.829 109.006C117.487 109.006 118.069 109.149 118.575 109.436C119.082 109.723 119.47 110.12 119.74 110.626C120.018 111.123 120.157 111.689 120.157 112.321ZM118.968 112.081C118.968 111.642 118.871 111.267 118.677 110.955C118.483 110.634 118.217 110.394 117.879 110.233C117.55 110.065 117.183 109.98 116.778 109.98C116.196 109.98 115.699 110.166 115.285 110.537C114.88 110.908 114.648 111.423 114.589 112.081H118.968Z" fill="white"/>
<path d="M84.3632 1.05455C133.868 1.05455 174 41.1864 174 90.6916C174 140.197 133.868 180.329 84.3632 180.329C50.536 180.329 21.0852 161.591 5.82419 133.928" stroke="#F99C30" stroke-width="2.10911"/>
</svg>
