<svg width="312" height="142" viewBox="0 0 312 142" fill="none" xmlns="http://www.w3.org/2000/svg">
<path d="M0 40.5H312" stroke="#E2E7E7" stroke-dasharray="3 6"/>
<path d="M0 0.5H312" stroke="#E2E7E7" stroke-dasharray="3 6"/>
<path d="M0 80.5H312" stroke="#E2E7E7" stroke-dasharray="3 6"/>
<path d="M0 120.5H312" stroke="#E2E7E7"/>
<path opacity="0.5" d="M14.7167 135.441C14.7167 134.18 14.922 133.197 15.3327 132.493C15.7433 131.782 16.462 131.426 17.4887 131.426C18.508 131.426 19.223 131.782 19.6337 132.493C20.0443 133.197 20.2497 134.18 20.2497 135.441C20.2497 136.724 20.0443 137.722 19.6337 138.433C19.223 139.144 18.508 139.5 17.4887 139.5C16.462 139.5 15.7433 139.144 15.3327 138.433C14.922 137.722 14.7167 136.724 14.7167 135.441ZM19.2597 135.441C19.2597 134.803 19.2157 134.264 19.1277 133.824C19.047 133.377 18.8747 133.017 18.6107 132.746C18.354 132.475 17.98 132.339 17.4887 132.339C16.99 132.339 16.6087 132.475 16.3447 132.746C16.088 133.017 15.9157 133.377 15.8277 133.824C15.747 134.264 15.7067 134.803 15.7067 135.441C15.7067 136.101 15.747 136.655 15.8277 137.102C15.9157 137.549 16.088 137.909 16.3447 138.18C16.6087 138.451 16.99 138.587 17.4887 138.587C17.98 138.587 18.354 138.451 18.6107 138.18C18.8747 137.909 19.047 137.549 19.1277 137.102C19.2157 136.655 19.2597 136.101 19.2597 135.441ZM21.8599 132.46V131.547H23.9279V139.5H22.9159V132.46H21.8599Z" fill="#737B8B"/>
<path opacity="0.5" d="M67.8148 135.441C67.8148 134.18 68.0201 133.197 68.4308 132.493C68.8415 131.782 69.5601 131.426 70.5868 131.426C71.6061 131.426 72.3211 131.782 72.7318 132.493C73.1425 133.197 73.3478 134.18 73.3478 135.441C73.3478 136.724 73.1425 137.722 72.7318 138.433C72.3211 139.144 71.6061 139.5 70.5868 139.5C69.5601 139.5 68.8415 139.144 68.4308 138.433C68.0201 137.722 67.8148 136.724 67.8148 135.441ZM72.3578 135.441C72.3578 134.803 72.3138 134.264 72.2258 133.824C72.1451 133.377 71.9728 133.017 71.7088 132.746C71.4521 132.475 71.0781 132.339 70.5868 132.339C70.0881 132.339 69.7068 132.475 69.4428 132.746C69.1861 133.017 69.0138 133.377 68.9258 133.824C68.8451 134.264 68.8048 134.803 68.8048 135.441C68.8048 136.101 68.8451 136.655 68.9258 137.102C69.0138 137.549 69.1861 137.909 69.4428 138.18C69.7068 138.451 70.0881 138.587 70.5868 138.587C71.0781 138.587 71.4521 138.451 71.7088 138.18C71.9728 137.909 72.1451 137.549 72.2258 137.102C72.3138 136.655 72.3578 136.101 72.3578 135.441ZM75.101 138.697C76.0324 137.949 76.762 137.337 77.29 136.86C77.818 136.376 78.2617 135.874 78.621 135.353C78.9877 134.825 79.171 134.308 79.171 133.802C79.171 133.325 79.0537 132.951 78.819 132.68C78.5917 132.401 78.2214 132.262 77.708 132.262C77.2094 132.262 76.8207 132.42 76.542 132.735C76.2707 133.043 76.124 133.457 76.102 133.978H75.134C75.1634 133.157 75.4127 132.522 75.882 132.075C76.3514 131.628 76.9564 131.404 77.697 131.404C78.4524 131.404 79.05 131.613 79.49 132.031C79.9374 132.449 80.161 133.025 80.161 133.758C80.161 134.367 79.9777 134.961 79.611 135.54C79.2517 136.112 78.841 136.618 78.379 137.058C77.917 137.491 77.3267 137.997 76.608 138.576H80.392V139.412H75.101V138.697Z" fill="#737B8B"/>
<path opacity="0.5" d="M122.74 135.441C122.74 134.18 122.945 133.197 123.356 132.493C123.766 131.782 124.485 131.426 125.512 131.426C126.531 131.426 127.246 131.782 127.657 132.493C128.067 133.197 128.273 134.18 128.273 135.441C128.273 136.724 128.067 137.722 127.657 138.433C127.246 139.144 126.531 139.5 125.512 139.5C124.485 139.5 123.766 139.144 123.356 138.433C122.945 137.722 122.74 136.724 122.74 135.441ZM127.283 135.441C127.283 134.803 127.239 134.264 127.151 133.824C127.07 133.377 126.898 133.017 126.634 132.746C126.377 132.475 126.003 132.339 125.512 132.339C125.013 132.339 124.632 132.475 124.368 132.746C124.111 133.017 123.939 133.377 123.851 133.824C123.77 134.264 123.73 134.803 123.73 135.441C123.73 136.101 123.77 136.655 123.851 137.102C123.939 137.549 124.111 137.909 124.368 138.18C124.632 138.451 125.013 138.587 125.512 138.587C126.003 138.587 126.377 138.451 126.634 138.18C126.898 137.909 127.07 137.549 127.151 137.102C127.239 136.655 127.283 136.101 127.283 135.441ZM130.125 133.549C130.176 132.874 130.437 132.346 130.906 131.965C131.375 131.584 131.984 131.393 132.732 131.393C133.231 131.393 133.66 131.485 134.019 131.668C134.386 131.844 134.661 132.086 134.844 132.394C135.035 132.702 135.13 133.05 135.13 133.439C135.13 133.894 134.998 134.286 134.734 134.616C134.477 134.946 134.14 135.159 133.722 135.254V135.309C134.199 135.426 134.576 135.657 134.855 136.002C135.134 136.347 135.273 136.798 135.273 137.355C135.273 137.773 135.178 138.151 134.987 138.488C134.796 138.818 134.51 139.078 134.129 139.269C133.748 139.46 133.289 139.555 132.754 139.555C131.977 139.555 131.339 139.353 130.84 138.95C130.341 138.539 130.063 137.96 130.004 137.212H130.972C131.023 137.652 131.203 138.011 131.511 138.29C131.819 138.569 132.23 138.708 132.743 138.708C133.256 138.708 133.645 138.576 133.909 138.312C134.18 138.041 134.316 137.692 134.316 137.267C134.316 136.717 134.133 136.321 133.766 136.079C133.399 135.837 132.846 135.716 132.105 135.716H131.852V134.88H132.116C132.791 134.873 133.3 134.763 133.645 134.55C133.99 134.33 134.162 133.993 134.162 133.538C134.162 133.149 134.034 132.838 133.777 132.603C133.528 132.368 133.168 132.251 132.699 132.251C132.244 132.251 131.878 132.368 131.599 132.603C131.32 132.838 131.155 133.153 131.104 133.549H130.125Z" fill="#737B8B"/>
<path opacity="0.5" d="M178.019 135.441C178.019 134.18 178.225 133.197 178.635 132.493C179.046 131.782 179.765 131.426 180.791 131.426C181.811 131.426 182.526 131.782 182.936 132.493C183.347 133.197 183.552 134.18 183.552 135.441C183.552 136.724 183.347 137.722 182.936 138.433C182.526 139.144 181.811 139.5 180.791 139.5C179.765 139.5 179.046 139.144 178.635 138.433C178.225 137.722 178.019 136.724 178.019 135.441ZM182.562 135.441C182.562 134.803 182.518 134.264 182.43 133.824C182.35 133.377 182.177 133.017 181.913 132.746C181.657 132.475 181.283 132.339 180.791 132.339C180.293 132.339 179.911 132.475 179.647 132.746C179.391 133.017 179.218 133.377 179.13 133.824C179.05 134.264 179.009 134.803 179.009 135.441C179.009 136.101 179.05 136.655 179.13 137.102C179.218 137.549 179.391 137.909 179.647 138.18C179.911 138.451 180.293 138.587 180.791 138.587C181.283 138.587 181.657 138.451 181.913 138.18C182.177 137.909 182.35 137.549 182.43 137.102C182.518 136.655 182.562 136.101 182.562 135.441ZM185.185 137.729V136.97L189.046 131.624H190.245V136.86H191.345V137.729H190.245V139.5H189.255V137.729H185.185ZM189.299 132.669L186.34 136.86H189.299V132.669Z" fill="#737B8B"/>
<path opacity="0.5" d="M233.025 135.441C233.025 134.18 233.23 133.197 233.641 132.493C234.051 131.782 234.77 131.426 235.797 131.426C236.816 131.426 237.531 131.782 237.942 132.493C238.352 133.197 238.558 134.18 238.558 135.441C238.558 136.724 238.352 137.722 237.942 138.433C237.531 139.144 236.816 139.5 235.797 139.5C234.77 139.5 234.051 139.144 233.641 138.433C233.23 137.722 233.025 136.724 233.025 135.441ZM237.568 135.441C237.568 134.803 237.524 134.264 237.436 133.824C237.355 133.377 237.183 133.017 236.919 132.746C236.662 132.475 236.288 132.339 235.797 132.339C235.298 132.339 234.917 132.475 234.653 132.746C234.396 133.017 234.224 133.377 234.136 133.824C234.055 134.264 234.015 134.803 234.015 135.441C234.015 136.101 234.055 136.655 234.136 137.102C234.224 137.549 234.396 137.909 234.653 138.18C234.917 138.451 235.298 138.587 235.797 138.587C236.288 138.587 236.662 138.451 236.919 138.18C237.183 137.909 237.355 137.549 237.436 137.102C237.524 136.655 237.568 136.101 237.568 135.441ZM245.503 132.416H241.642V134.924C241.811 134.689 242.06 134.499 242.39 134.352C242.72 134.198 243.076 134.121 243.457 134.121C244.066 134.121 244.561 134.249 244.942 134.506C245.323 134.755 245.595 135.082 245.756 135.485C245.925 135.881 246.009 136.303 246.009 136.75C246.009 137.278 245.91 137.751 245.712 138.169C245.514 138.587 245.21 138.917 244.799 139.159C244.396 139.401 243.893 139.522 243.292 139.522C242.522 139.522 241.899 139.324 241.422 138.928C240.945 138.532 240.656 138.004 240.553 137.344H241.532C241.627 137.762 241.829 138.088 242.137 138.323C242.445 138.558 242.834 138.675 243.303 138.675C243.882 138.675 244.319 138.503 244.612 138.158C244.905 137.806 245.052 137.344 245.052 136.772C245.052 136.2 244.905 135.76 244.612 135.452C244.319 135.137 243.886 134.979 243.314 134.979C242.925 134.979 242.584 135.074 242.291 135.265C242.005 135.448 241.796 135.701 241.664 136.024H240.718V131.536H245.503V132.416Z" fill="#737B8B"/>
<path opacity="0.5" d="M287.987 135.441C287.987 134.18 288.193 133.197 288.603 132.493C289.014 131.782 289.733 131.426 290.759 131.426C291.779 131.426 292.494 131.782 292.904 132.493C293.315 133.197 293.52 134.18 293.52 135.441C293.52 136.724 293.315 137.722 292.904 138.433C292.494 139.144 291.779 139.5 290.759 139.5C289.733 139.5 289.014 139.144 288.603 138.433C288.193 137.722 287.987 136.724 287.987 135.441ZM292.53 135.441C292.53 134.803 292.486 134.264 292.398 133.824C292.318 133.377 292.145 133.017 291.881 132.746C291.625 132.475 291.251 132.339 290.759 132.339C290.261 132.339 289.879 132.475 289.615 132.746C289.359 133.017 289.186 133.377 289.098 133.824C289.018 134.264 288.977 134.803 288.977 135.441C288.977 136.101 289.018 136.655 289.098 137.102C289.186 137.549 289.359 137.909 289.615 138.18C289.879 138.451 290.261 138.587 290.759 138.587C291.251 138.587 291.625 138.451 291.881 138.18C292.145 137.909 292.318 137.549 292.398 137.102C292.486 136.655 292.53 136.101 292.53 135.441ZM299.827 133.439C299.666 132.625 299.164 132.218 298.32 132.218C297.668 132.218 297.18 132.471 296.857 132.977C296.535 133.476 296.377 134.301 296.384 135.452C296.553 135.071 296.832 134.774 297.22 134.561C297.616 134.341 298.056 134.231 298.54 134.231C299.296 134.231 299.897 134.466 300.344 134.935C300.799 135.404 301.026 136.053 301.026 136.882C301.026 137.381 300.927 137.828 300.729 138.224C300.539 138.62 300.245 138.935 299.849 139.17C299.461 139.405 298.988 139.522 298.43 139.522C297.675 139.522 297.085 139.353 296.659 139.016C296.234 138.679 295.937 138.213 295.768 137.619C295.6 137.025 295.515 136.292 295.515 135.419C295.515 132.728 296.454 131.382 298.331 131.382C299.05 131.382 299.615 131.576 300.025 131.965C300.436 132.354 300.678 132.845 300.751 133.439H299.827ZM298.331 135.078C298.016 135.078 297.719 135.144 297.44 135.276C297.162 135.401 296.934 135.595 296.758 135.859C296.59 136.116 296.505 136.431 296.505 136.805C296.505 137.362 296.667 137.817 296.989 138.169C297.312 138.514 297.774 138.686 298.375 138.686C298.889 138.686 299.296 138.528 299.596 138.213C299.904 137.89 300.058 137.458 300.058 136.915C300.058 136.343 299.912 135.896 299.618 135.573C299.325 135.243 298.896 135.078 298.331 135.078Z" fill="#737B8B"/>
</svg>
