<svg width="140" height="109" viewBox="0 0 140 109" fill="none" xmlns="http://www.w3.org/2000/svg">
<path d="M0 6C0 2.68629 2.68629 0 6 0L134 0C137.314 0 140 2.68629 140 6V97C140 100.314 137.314 103 134 103H50.5882L46.5153 107.694C45.9173 108.383 44.8474 108.383 44.2494 107.694L40.1765 103H5.99999C2.68629 103 0 100.314 0 97V6Z" fill="#37375C"/>
<path opacity="0.5" d="M16.456 41.32V40.324H18.712V49H17.608V41.32H16.456ZM22.1598 43.636C22.3758 43.26 22.6958 42.948 23.1198 42.7C23.5518 42.444 24.0518 42.316 24.6198 42.316C25.2038 42.316 25.7318 42.456 26.2038 42.736C26.6838 43.016 27.0598 43.412 27.3318 43.924C27.6038 44.428 27.7398 45.016 27.7398 45.688C27.7398 46.352 27.6038 46.944 27.3318 47.464C27.0598 47.984 26.6838 48.388 26.2038 48.676C25.7318 48.964 25.2038 49.108 24.6198 49.108C24.0598 49.108 23.5638 48.984 23.1318 48.736C22.7078 48.48 22.3838 48.164 22.1598 47.788V52.12H21.0678V42.424H22.1598V43.636ZM26.6238 45.688C26.6238 45.192 26.5238 44.76 26.3238 44.392C26.1238 44.024 25.8518 43.744 25.5078 43.552C25.1718 43.36 24.7998 43.264 24.3918 43.264C23.9918 43.264 23.6198 43.364 23.2758 43.564C22.9398 43.756 22.6678 44.04 22.4598 44.416C22.2598 44.784 22.1598 45.212 22.1598 45.7C22.1598 46.196 22.2598 46.632 22.4598 47.008C22.6678 47.376 22.9398 47.66 23.2758 47.86C23.6198 48.052 23.9918 48.148 24.3918 48.148C24.7998 48.148 25.1718 48.052 25.5078 47.86C25.8518 47.66 26.1238 47.376 26.3238 47.008C26.5238 46.632 26.6238 46.192 26.6238 45.688ZM37.3851 42.304C37.8971 42.304 38.3531 42.412 38.7531 42.628C39.1531 42.836 39.4691 43.152 39.7011 43.576C39.9331 44 40.0491 44.516 40.0491 45.124V49H38.9691V45.28C38.9691 44.624 38.8051 44.124 38.4771 43.78C38.1571 43.428 37.7211 43.252 37.1691 43.252C36.6011 43.252 36.1491 43.436 35.8131 43.804C35.4771 44.164 35.3091 44.688 35.3091 45.376V49H34.2291V45.28C34.2291 44.624 34.0651 44.124 33.7371 43.78C33.4171 43.428 32.9811 43.252 32.4291 43.252C31.8611 43.252 31.4091 43.436 31.0731 43.804C30.7371 44.164 30.5691 44.688 30.5691 45.376V49H29.4771V42.424H30.5691V43.372C30.7851 43.028 31.0731 42.764 31.4331 42.58C31.8011 42.396 32.2051 42.304 32.6451 42.304C33.1971 42.304 33.6851 42.428 34.1091 42.676C34.5331 42.924 34.8491 43.288 35.0571 43.768C35.2411 43.304 35.5451 42.944 35.9691 42.688C36.3931 42.432 36.8651 42.304 37.3851 42.304ZM50.1996 44.14V45.064H45.4116V44.14H50.1996ZM55.6042 47.068V46.24L59.8162 40.408H61.1242V46.12H62.3242V47.068H61.1242V49H60.0442V47.068H55.6042ZM60.0922 41.548L56.8642 46.12H60.0922V41.548ZM64.9871 43.636C65.2031 43.26 65.5231 42.948 65.9471 42.7C66.3791 42.444 66.8791 42.316 67.4471 42.316C68.0311 42.316 68.5591 42.456 69.0311 42.736C69.5111 43.016 69.8871 43.412 70.1591 43.924C70.4311 44.428 70.5671 45.016 70.5671 45.688C70.5671 46.352 70.4311 46.944 70.1591 47.464C69.8871 47.984 69.5111 48.388 69.0311 48.676C68.5591 48.964 68.0311 49.108 67.4471 49.108C66.8871 49.108 66.3911 48.984 65.9591 48.736C65.5351 48.48 65.2111 48.164 64.9871 47.788V52.12H63.8951V42.424H64.9871V43.636ZM69.4511 45.688C69.4511 45.192 69.3511 44.76 69.1511 44.392C68.9511 44.024 68.6791 43.744 68.3351 43.552C67.9991 43.36 67.6271 43.264 67.2191 43.264C66.8191 43.264 66.4471 43.364 66.1031 43.564C65.7671 43.756 65.4951 44.04 65.2871 44.416C65.0871 44.784 64.9871 45.212 64.9871 45.7C64.9871 46.196 65.0871 46.632 65.2871 47.008C65.4951 47.376 65.7671 47.66 66.1031 47.86C66.4471 48.052 66.8191 48.148 67.2191 48.148C67.6271 48.148 67.9991 48.052 68.3351 47.86C68.6791 47.66 68.9511 47.376 69.1511 47.008C69.3511 46.632 69.4511 46.192 69.4511 45.688ZM80.2125 42.304C80.7245 42.304 81.1805 42.412 81.5805 42.628C81.9805 42.836 82.2965 43.152 82.5285 43.576C82.7605 44 82.8765 44.516 82.8765 45.124V49H81.7965V45.28C81.7965 44.624 81.6325 44.124 81.3045 43.78C80.9845 43.428 80.5485 43.252 79.9965 43.252C79.4285 43.252 78.9765 43.436 78.6405 43.804C78.3045 44.164 78.1365 44.688 78.1365 45.376V49H77.0565V45.28C77.0565 44.624 76.8925 44.124 76.5645 43.78C76.2445 43.428 75.8085 43.252 75.2565 43.252C74.6885 43.252 74.2365 43.436 73.9005 43.804C73.5645 44.164 73.3965 44.688 73.3965 45.376V49H72.3045V42.424H73.3965V43.372C73.6125 43.028 73.9005 42.764 74.2605 42.58C74.6285 42.396 75.0325 42.304 75.4725 42.304C76.0245 42.304 76.5125 42.428 76.9365 42.676C77.3605 42.924 77.6765 43.288 77.8845 43.768C78.0685 43.304 78.3725 42.944 78.7965 42.688C79.2205 42.432 79.6925 42.304 80.2125 42.304Z" fill="white"/>
<path d="M21.928 25.2962H18.436L17.836 27.0002H16.408L19.396 18.6482H20.98L23.968 27.0002H22.528L21.928 25.2962ZM21.544 24.1802L20.188 20.3042L18.82 24.1802H21.544ZM28.3392 21.5042H27.1152V27.0002H25.7352V21.5042H24.9552V20.3882H25.7352V19.9202C25.7352 19.1602 25.9352 18.6082 26.3352 18.2642C26.7432 17.9122 27.3792 17.7362 28.2432 17.7362V18.8762C27.8272 18.8762 27.5352 18.9562 27.3672 19.1162C27.1992 19.2682 27.1152 19.5362 27.1152 19.9202V20.3882H28.3392V21.5042ZM31.4476 21.5042V25.1642C31.4476 25.4122 31.5036 25.5922 31.6156 25.7042C31.7356 25.8082 31.9356 25.8602 32.2156 25.8602H33.0556V27.0002H31.9756C31.3596 27.0002 30.8876 26.8562 30.5596 26.5682C30.2316 26.2802 30.0676 25.8122 30.0676 25.1642V21.5042H29.2876V20.3882H30.0676V18.7442H31.4476V20.3882H33.0556V21.5042H31.4476ZM40.6764 23.5322C40.6764 23.7802 40.6604 24.0042 40.6284 24.2042H35.5764C35.6164 24.7322 35.8124 25.1562 36.1644 25.4762C36.5164 25.7962 36.9484 25.9562 37.4604 25.9562C38.1964 25.9562 38.7164 25.6482 39.0204 25.0322H40.4964C40.2964 25.6402 39.9324 26.1402 39.4044 26.5322C38.8844 26.9162 38.2364 27.1082 37.4604 27.1082C36.8284 27.1082 36.2604 26.9682 35.7564 26.6882C35.2604 26.4002 34.8684 26.0002 34.5804 25.4882C34.3004 24.9682 34.1604 24.3682 34.1604 23.6882C34.1604 23.0082 34.2964 22.4122 34.5684 21.9002C34.8484 21.3802 35.2364 20.9802 35.7324 20.7002C36.2364 20.4202 36.8124 20.2802 37.4604 20.2802C38.0844 20.2802 38.6404 20.4162 39.1284 20.6882C39.6164 20.9602 39.9964 21.3442 40.2684 21.8402C40.5404 22.3282 40.6764 22.8922 40.6764 23.5322ZM39.2484 23.1002C39.2404 22.5962 39.0604 22.1922 38.7084 21.8882C38.3564 21.5842 37.9204 21.4322 37.4004 21.4322C36.9284 21.4322 36.5244 21.5842 36.1884 21.8882C35.8524 22.1842 35.6524 22.5882 35.5884 23.1002H39.2484ZM43.6907 21.3482C43.8907 21.0122 44.1547 20.7522 44.4827 20.5682C44.8187 20.3762 45.2147 20.2802 45.6707 20.2802V21.6962H45.3227C44.7867 21.6962 44.3787 21.8322 44.0987 22.1042C43.8267 22.3762 43.6907 22.8482 43.6907 23.5202V27.0002H42.3227V20.3882H43.6907V21.3482ZM50.5641 20.2802C51.0841 20.2802 51.5481 20.3882 51.9561 20.6042C52.3721 20.8202 52.6961 21.1402 52.9281 21.5642C53.1601 21.9882 53.2761 22.5002 53.2761 23.1002V27.0002H51.9201V23.3042C51.9201 22.7122 51.7721 22.2602 51.4761 21.9482C51.1801 21.6282 50.7761 21.4682 50.2641 21.4682C49.7521 21.4682 49.3441 21.6282 49.0401 21.9482C48.7441 22.2602 48.5961 22.7122 48.5961 23.3042V27.0002H47.2281V20.3882L48.5961 20.3882V21.1442C48.8201 20.8722 49.1041 20.6602 49.4481 20.5082C49.8001 20.3562 50.1721 20.2802 50.5641 20.2802ZM58.1891 27.1082C57.5651 27.1082 57.0011 26.9682 56.4971 26.6882C55.9931 26.4002 55.5971 26.0002 55.3091 25.4882C55.0211 24.9682 54.8771 24.3682 54.8771 23.6882C54.8771 23.0162 55.0251 22.4202 55.3211 21.9002C55.6171 21.3802 56.0211 20.9802 56.5331 20.7002C57.0451 20.4202 57.6171 20.2802 58.2491 20.2802C58.8811 20.2802 59.4531 20.4202 59.9651 20.7002C60.4771 20.9802 60.8811 21.3802 61.1771 21.9002C61.4731 22.4202 61.6211 23.0162 61.6211 23.6882C61.6211 24.3602 61.4691 24.9562 61.1651 25.4762C60.8611 25.9962 60.4451 26.4002 59.9171 26.6882C59.3971 26.9682 58.8211 27.1082 58.1891 27.1082ZM58.1891 25.9202C58.5411 25.9202 58.8691 25.8362 59.1731 25.6682C59.4851 25.5002 59.7371 25.2482 59.9291 24.9122C60.1211 24.5762 60.2171 24.1682 60.2171 23.6882C60.2171 23.2082 60.1251 22.8042 59.9411 22.4762C59.7571 22.1402 59.5131 21.8882 59.2091 21.7202C58.9051 21.5522 58.5771 21.4682 58.2251 21.4682C57.8731 21.4682 57.5451 21.5522 57.2411 21.7202C56.9451 21.8882 56.7091 22.1402 56.5331 22.4762C56.3571 22.8042 56.2691 23.2082 56.2691 23.6882C56.2691 24.4002 56.4491 24.9522 56.8091 25.3442C57.1771 25.7282 57.6371 25.9202 58.1891 25.9202ZM66.1414 27.1082C65.5174 27.1082 64.9534 26.9682 64.4494 26.6882C63.9454 26.4002 63.5494 26.0002 63.2614 25.4882C62.9734 24.9682 62.8294 24.3682 62.8294 23.6882C62.8294 23.0162 62.9774 22.4202 63.2734 21.9002C63.5694 21.3802 63.9734 20.9802 64.4854 20.7002C64.9974 20.4202 65.5694 20.2802 66.2014 20.2802C66.8334 20.2802 67.4054 20.4202 67.9174 20.7002C68.4294 20.9802 68.8334 21.3802 69.1294 21.9002C69.4254 22.4202 69.5734 23.0162 69.5734 23.6882C69.5734 24.3602 69.4214 24.9562 69.1174 25.4762C68.8134 25.9962 68.3974 26.4002 67.8694 26.6882C67.3494 26.9682 66.7734 27.1082 66.1414 27.1082ZM66.1414 25.9202C66.4934 25.9202 66.8214 25.8362 67.1254 25.6682C67.4374 25.5002 67.6894 25.2482 67.8814 24.9122C68.0734 24.5762 68.1694 24.1682 68.1694 23.6882C68.1694 23.2082 68.0774 22.8042 67.8934 22.4762C67.7094 22.1402 67.4654 21.8882 67.1614 21.7202C66.8574 21.5522 66.5294 21.4682 66.1774 21.4682C65.8254 21.4682 65.4974 21.5522 65.1934 21.7202C64.8974 21.8882 64.6614 22.1402 64.4854 22.4762C64.3094 22.8042 64.2214 23.2082 64.2214 23.6882C64.2214 24.4002 64.4014 24.9522 64.7614 25.3442C65.1294 25.7282 65.5894 25.9202 66.1414 25.9202ZM74.5618 20.2802C75.0818 20.2802 75.5458 20.3882 75.9538 20.6042C76.3698 20.8202 76.6938 21.1402 76.9258 21.5642C77.1578 21.9882 77.2738 22.5002 77.2738 23.1002V27.0002H75.9178V23.3042C75.9178 22.7122 75.7698 22.2602 75.4738 21.9482C75.1778 21.6282 74.7738 21.4682 74.2618 21.4682C73.7498 21.4682 73.3418 21.6282 73.0378 21.9482C72.7418 22.2602 72.5938 22.7122 72.5938 23.3042V27.0002H71.2258V20.3882H72.5938V21.1442C72.8178 20.8722 73.1018 20.6602 73.4458 20.5082C73.7978 20.3562 74.1698 20.2802 74.5618 20.2802Z" fill="white"/>
<path d="M16.72 70.9998V69.3358H20.048V80.9998H18.208V70.9998H16.72ZM23.8298 81.1118C23.4991 81.1118 23.2218 80.9998 22.9978 80.7758C22.7738 80.5518 22.6618 80.2744 22.6618 79.9438C22.6618 79.6131 22.7738 79.3358 22.9978 79.1118C23.2218 78.8878 23.4991 78.7758 23.8298 78.7758C24.1498 78.7758 24.4218 78.8878 24.6458 79.1118C24.8698 79.3358 24.9818 79.6131 24.9818 79.9438C24.9818 80.2744 24.8698 80.5518 24.6458 80.7758C24.4218 80.9998 24.1498 81.1118 23.8298 81.1118ZM28.9811 74.9038C27.8718 74.3491 27.3171 73.4744 27.3171 72.2798C27.3171 71.7038 27.4611 71.1758 27.7491 70.6958C28.0371 70.2158 28.4691 69.8371 29.0451 69.5598C29.6211 69.2718 30.3251 69.1278 31.1571 69.1278C31.9785 69.1278 32.6771 69.2718 33.2531 69.5598C33.8398 69.8371 34.2771 70.2158 34.5651 70.6958C34.8531 71.1758 34.9971 71.7038 34.9971 72.2798C34.9971 72.8771 34.8425 73.4051 34.5331 73.8638C34.2345 74.3118 33.8345 74.6584 33.3331 74.9038C33.9411 75.1278 34.4211 75.4958 34.7731 76.0078C35.1251 76.5091 35.3011 77.1011 35.3011 77.7838C35.3011 78.4771 35.1251 79.0904 34.7731 79.6238C34.4211 80.1571 33.9305 80.5678 33.3011 80.8558C32.6718 81.1438 31.9571 81.2878 31.1571 81.2878C30.3571 81.2878 29.6425 81.1438 29.0131 80.8558C28.3945 80.5678 27.9091 80.1571 27.5571 79.6238C27.2051 79.0904 27.0291 78.4771 27.0291 77.7838C27.0291 77.0904 27.2051 76.4931 27.5571 75.9918C27.9091 75.4904 28.3838 75.1278 28.9811 74.9038ZM33.2531 72.5038C33.2531 71.9064 33.0665 71.4478 32.6931 71.1278C32.3198 70.8078 31.8078 70.6478 31.1571 70.6478C30.5171 70.6478 30.0105 70.8078 29.6371 71.1278C29.2638 71.4478 29.0771 71.9118 29.0771 72.5198C29.0771 73.0531 29.2691 73.4904 29.6531 73.8318C30.0478 74.1624 30.5491 74.3278 31.1571 74.3278C31.7651 74.3278 32.2665 74.1571 32.6611 73.8158C33.0558 73.4744 33.2531 73.0371 33.2531 72.5038ZM31.1571 75.7038C30.4531 75.7038 29.8771 75.8798 29.4291 76.2318C28.9918 76.5731 28.7731 77.0691 28.7731 77.7198C28.7731 78.3278 28.9865 78.8238 29.4131 79.2078C29.8398 79.5811 30.4211 79.7678 31.1571 79.7678C31.8825 79.7678 32.4531 79.5758 32.8691 79.1918C33.2958 78.8078 33.5091 78.3171 33.5091 77.7198C33.5091 77.0798 33.2905 76.5838 32.8531 76.2318C32.4265 75.8798 31.8611 75.7038 31.1571 75.7038ZM39.7882 77.8318C39.8949 78.3651 40.1242 78.7704 40.4762 79.0478C40.8282 79.3251 41.3029 79.4638 41.9002 79.4638C42.6576 79.4638 43.2123 79.1651 43.5642 78.5678C43.9162 77.9704 44.0922 76.9518 44.0922 75.5118C43.8362 75.8744 43.4736 76.1571 43.0043 76.3598C42.5456 76.5518 42.0442 76.6478 41.5002 76.6478C40.8069 76.6478 40.1776 76.5091 39.6122 76.2318C39.0469 75.9438 38.5989 75.5224 38.2682 74.9678C37.9482 74.4024 37.7882 73.7198 37.7882 72.9198C37.7882 71.7464 38.1296 70.8131 38.8122 70.1198C39.5056 69.4158 40.4549 69.0638 41.6602 69.0638C43.1109 69.0638 44.1402 69.5491 44.7483 70.5198C45.3669 71.4798 45.6763 72.9571 45.6763 74.9518C45.6763 76.3278 45.5589 77.4531 45.3243 78.3278C45.1002 79.2024 44.7056 79.8638 44.1403 80.3118C43.5749 80.7598 42.7909 80.9838 41.7882 80.9838C40.6469 80.9838 39.7669 80.6851 39.1482 80.0878C38.5296 79.4904 38.1829 78.7384 38.1082 77.8318H39.7882ZM41.8203 75.1118C42.4603 75.1118 42.9616 74.9144 43.3242 74.5198C43.6976 74.1144 43.8843 73.5811 43.8843 72.9198C43.8843 72.1838 43.6869 71.6131 43.2923 71.2078C42.9083 70.7918 42.3802 70.5838 41.7083 70.5838C41.0362 70.5838 40.5029 70.7971 40.1082 71.2238C39.7242 71.6398 39.5322 72.1891 39.5322 72.8718C39.5322 73.5224 39.7189 74.0611 40.0922 74.4878C40.4762 74.9038 41.0522 75.1118 41.8203 75.1118ZM47.9725 75.0158C47.9725 73.1704 48.2818 71.7304 48.9005 70.6958C49.5298 69.6504 50.6072 69.1278 52.1325 69.1278C53.6578 69.1278 54.7298 69.6504 55.3485 70.6958C55.9778 71.7304 56.2925 73.1704 56.2925 75.0158C56.2925 76.8824 55.9778 78.3438 55.3485 79.3998C54.7298 80.4451 53.6578 80.9678 52.1325 80.9678C50.6072 80.9678 49.5298 80.4451 48.9005 79.3998C48.2818 78.3438 47.9725 76.8824 47.9725 75.0158ZM54.5005 75.0158C54.5005 74.1518 54.4418 73.4211 54.3245 72.8238C54.2178 72.2264 53.9938 71.7411 53.6525 71.3678C53.3112 70.9838 52.8045 70.7918 52.1325 70.7918C51.4605 70.7918 50.9538 70.9838 50.6125 71.3678C50.2712 71.7411 50.0418 72.2264 49.9245 72.8238C49.8178 73.4211 49.7645 74.1518 49.7645 75.0158C49.7645 75.9118 49.8178 76.6638 49.9245 77.2718C50.0312 77.8798 50.2552 78.3704 50.5965 78.7438C50.9485 79.1171 51.4605 79.3038 52.1325 79.3038C52.8045 79.3038 53.3112 79.1171 53.6525 78.7438C54.0045 78.3704 54.2338 77.8798 54.3405 77.2718C54.4472 76.6638 54.5005 75.9118 54.5005 75.0158ZM67.0427 81.1438C66.2107 81.1438 65.4587 80.9571 64.7867 80.5838C64.1147 80.1998 63.5867 79.6664 63.2027 78.9838C62.8187 78.2904 62.6267 77.4904 62.6267 76.5838C62.6267 75.6878 62.8241 74.8931 63.2187 74.1998C63.6134 73.5064 64.1521 72.9731 64.8347 72.5998C65.5174 72.2264 66.2801 72.0398 67.1227 72.0398C67.9654 72.0398 68.7281 72.2264 69.4107 72.5998C70.0934 72.9731 70.6321 73.5064 71.0267 74.1998C71.4214 74.8931 71.6187 75.6878 71.6187 76.5838C71.6187 77.4798 71.4161 78.2744 71.0107 78.9678C70.6054 79.6611 70.0507 80.1998 69.3467 80.5838C68.6534 80.9571 67.8854 81.1438 67.0427 81.1438ZM67.0427 79.5598C67.5121 79.5598 67.9494 79.4478 68.3547 79.2238C68.7707 78.9998 69.1067 78.6638 69.3627 78.2158C69.6187 77.7678 69.7467 77.2238 69.7467 76.5838C69.7467 75.9438 69.6241 75.4051 69.3787 74.9678C69.1334 74.5198 68.8081 74.1838 68.4027 73.9598C67.9974 73.7358 67.5601 73.6238 67.0907 73.6238C66.6214 73.6238 66.1841 73.7358 65.7787 73.9598C65.3841 74.1838 65.0694 74.5198 64.8347 74.9678C64.6001 75.4051 64.4827 75.9438 64.4827 76.5838C64.4827 77.5331 64.7227 78.2691 65.2027 78.7918C65.6934 79.3038 66.3067 79.5598 67.0427 79.5598ZM75.5459 73.4638C75.8125 73.0158 76.1645 72.6691 76.6019 72.4238C77.0499 72.1678 77.5779 72.0398 78.1859 72.0398V73.9278H77.7219C77.0072 73.9278 76.4632 74.1091 76.0899 74.4718C75.7272 74.8344 75.5459 75.4638 75.5459 76.3598V80.9998H73.7219V72.1838H75.5459V73.4638ZM79.5545 76.5518C79.5545 75.6664 79.7358 74.8824 80.0985 74.1998C80.4718 73.5171 80.9732 72.9891 81.6025 72.6158C82.2425 72.2318 82.9518 72.0398 83.7305 72.0398C84.3065 72.0398 84.8718 72.1678 85.4265 72.4238C85.9918 72.6691 86.4398 72.9998 86.7705 73.4158V69.1598H88.6105V80.9998H86.7705V79.6718C86.4718 80.0984 86.0558 80.4504 85.5225 80.7278C84.9998 81.0051 84.3972 81.1438 83.7145 81.1438C82.9465 81.1438 82.2425 80.9518 81.6025 80.5678C80.9732 80.1731 80.4718 79.6291 80.0985 78.9358C79.7358 78.2318 79.5545 77.4371 79.5545 76.5518ZM86.7705 76.5838C86.7705 75.9758 86.6425 75.4478 86.3865 74.9998C86.1412 74.5518 85.8158 74.2104 85.4105 73.9758C85.0052 73.7411 84.5678 73.6238 84.0985 73.6238C83.6292 73.6238 83.1918 73.7411 82.7865 73.9758C82.3812 74.1998 82.0505 74.5358 81.7945 74.9838C81.5492 75.4211 81.4265 75.9438 81.4265 76.5518C81.4265 77.1598 81.5492 77.6931 81.7945 78.1518C82.0505 78.6104 82.3812 78.9624 82.7865 79.2078C83.2025 79.4424 83.6398 79.5598 84.0985 79.5598C84.5678 79.5598 85.0052 79.4424 85.4105 79.2078C85.8158 78.9731 86.1412 78.6318 86.3865 78.1838C86.6425 77.7251 86.7705 77.1918 86.7705 76.5838ZM99.3862 76.3758C99.3862 76.7064 99.3649 77.0051 99.3222 77.2718H92.5862C92.6396 77.9758 92.9009 78.5411 93.3702 78.9678C93.8396 79.3944 94.4156 79.6078 95.0982 79.6078C96.0796 79.6078 96.7729 79.1971 97.1782 78.3758H99.1462C98.8796 79.1864 98.3942 79.8531 97.6902 80.3758C96.9969 80.8878 96.1329 81.1438 95.0982 81.1438C94.2556 81.1438 93.4982 80.9571 92.8262 80.5838C92.1649 80.1998 91.6422 79.6664 91.2582 78.9838C90.8849 78.2904 90.6982 77.4904 90.6982 76.5838C90.6982 75.6771 90.8796 74.8824 91.2422 74.1998C91.6156 73.5064 92.1329 72.9731 92.7942 72.5998C93.4662 72.2264 94.2342 72.0398 95.0982 72.0398C95.9302 72.0398 96.6716 72.2211 97.3222 72.5838C97.9729 72.9464 98.4796 73.4584 98.8422 74.1198C99.2049 74.7704 99.3862 75.5224 99.3862 76.3758ZM97.4822 75.7998C97.4716 75.1278 97.2316 74.5891 96.7622 74.1838C96.2929 73.7784 95.7116 73.5758 95.0182 73.5758C94.3889 73.5758 93.8502 73.7784 93.4022 74.1838C92.9542 74.5784 92.6876 75.1171 92.6022 75.7998H97.4822ZM103.305 73.4638C103.572 73.0158 103.924 72.6691 104.361 72.4238C104.809 72.1678 105.337 72.0398 105.945 72.0398V73.9278H105.481C104.767 73.9278 104.223 74.1091 103.849 74.4718C103.487 74.8344 103.305 75.4638 103.305 76.3598V80.9998H101.481V72.1838H103.305V73.4638ZM111.122 81.1438C110.429 81.1438 109.805 81.0211 109.25 80.7758C108.706 80.5198 108.274 80.1784 107.954 79.7518C107.634 79.3144 107.463 78.8291 107.442 78.2958H109.33C109.362 78.6691 109.538 78.9838 109.858 79.2398C110.189 79.4851 110.599 79.6078 111.09 79.6078C111.602 79.6078 111.997 79.5118 112.274 79.3198C112.562 79.1171 112.706 78.8611 112.706 78.5518C112.706 78.2211 112.546 77.9758 112.226 77.8158C111.917 77.6558 111.421 77.4798 110.738 77.2878C110.077 77.1064 109.538 76.9304 109.122 76.7598C108.706 76.5891 108.343 76.3278 108.034 75.9758C107.735 75.6238 107.586 75.1598 107.586 74.5838C107.586 74.1144 107.725 73.6878 108.002 73.3038C108.279 72.9091 108.674 72.5998 109.186 72.3758C109.709 72.1518 110.306 72.0398 110.978 72.0398C111.981 72.0398 112.786 72.2958 113.394 72.8078C114.013 73.3091 114.343 73.9971 114.386 74.8718H112.562C112.53 74.4771 112.37 74.1624 112.082 73.9278C111.794 73.6931 111.405 73.5758 110.914 73.5758C110.434 73.5758 110.066 73.6664 109.81 73.8478C109.554 74.0291 109.426 74.2691 109.426 74.5678C109.426 74.8024 109.511 74.9998 109.682 75.1598C109.853 75.3198 110.061 75.4478 110.306 75.5438C110.551 75.6291 110.914 75.7411 111.394 75.8798C112.034 76.0504 112.557 76.2264 112.962 76.4078C113.378 76.5784 113.735 76.8344 114.034 77.1758C114.333 77.5171 114.487 77.9704 114.498 78.5358C114.498 79.0371 114.359 79.4851 114.082 79.8798C113.805 80.2744 113.41 80.5838 112.898 80.8078C112.397 81.0318 111.805 81.1438 111.122 81.1438Z" fill="white"/>
</svg>
